<svg width="24" height="24" viewBox="0 0 24 24" fill="none" xmlns="http://www.w3.org/2000/svg">
<path d="M8.01562 2.00171H15.9751" stroke="currentColor" stroke-width="1.5" stroke-linecap="round" stroke-linejoin="round"/>
<path d="M5.53125 11.1499C5.53125 11.1499 8.53125 10.224 11.0313 13.0015M18.5313 11.6128C18.5313 11.6128 17.9197 12.592 17.0313 13.0017" stroke="currentColor" stroke-width="1.5" stroke-linecap="round"/>
<path d="M10.0312 18.0037L10.0399 18.0013" stroke="currentColor" stroke-width="2" stroke-linecap="round" stroke-linejoin="round"/>
<path d="M14.0312 14.0037L14.0399 14.0013" stroke="currentColor" stroke-width="2" stroke-linecap="round" stroke-linejoin="round"/>
<path d="M9.52693 2.2146V6.2572C9.52693 6.91916 9.17519 7.48994 8.59404 7.80139C5.60885 9.4012 2.80495 13.9337 5.74609 18.579C6.4044 19.7185 8.57684 21.9976 12.0001 21.9976C15.4233 21.9976 17.5957 19.7185 18.254 18.579C21.1952 13.9337 18.3913 9.4012 15.4061 7.80139C14.8249 7.48994 14.4725 6.91916 14.4725 6.2572V2.26338" stroke="currentColor" stroke-width="1.5" stroke-linecap="round" stroke-linejoin="round"/>
</svg>
