<svg class="icon" width="20" height="20" viewBox="0 0 20 20" fill="none" xmlns="http://www.w3.org/2000/svg">
    <path d="M15 17.5H4.99997C4.66004 17.5 4.3237 17.4306 4.01149 17.2961C3.69928 17.1617 3.41778 16.965 3.18417 16.718C2.95057 16.4711 2.76978 16.1791 2.65286 15.8599C2.53593 15.5407 2.48533 15.2011 2.50414 14.8617L3.0158 5.64833C3.06309 4.79759 3.43437 3.99726 4.05337 3.41174C4.67236 2.82622 5.49208 2.49996 6.34414 2.5H13.6566C14.5087 2.49996 15.3284 2.82622 15.9474 3.41174C16.5664 3.99726 16.9377 4.79759 16.985 5.64833L17.4966 14.8608C17.5154 15.2003 17.4648 15.5401 17.3479 15.8594C17.2309 16.1787 17.05 16.4708 16.8164 16.7178C16.5827 16.9648 16.3011 17.1616 15.9888 17.2961C15.6765 17.4306 15.34 17.5 15 17.5V17.5Z" stroke="white" stroke-width="2" stroke-linecap="round" stroke-linejoin="round"></path>
    <path d="M13.3333 6.45825C13.3333 7.34231 12.9821 8.19015 12.357 8.81527C11.7318 9.4404 10.884 9.79158 9.99994 9.79158C9.11589 9.79158 8.26804 9.4404 7.64292 8.81527C7.0178 8.19015 6.66661 7.34231 6.66661 6.45825" stroke="white" stroke-width="2" stroke-linecap="round" stroke-linejoin="round"></path>
</svg>