<?xml version="1.0" encoding="UTF-8"?>
<svg id="katman_1" xmlns="http://www.w3.org/2000/svg" version="1.1" viewBox="0 0 566.93 566.93">
  <!-- Generator: Adobe Illustrator 30.2.1, SVG Export Plug-In . SVG Version: 2.1.1 Build 1)  -->
  <defs>
    <style>
      .st0 {
        fill: #6bbeaf;
      }
    </style>
  </defs>
  <path class="st0" d="M322.27,286.37c-12.99-60.38-1.07-93.05,12.93-111.86,19.36-26.01,47.58-31.98,73.06-71.12,12.07-18.54,18.13-36.13,21.34-47.85,36.01,106.45,19.84,164.64-.65,197.85-28.82,46.71-83.48,49.28-108.62,113.15-4.44,11.28-16.52,43.2-8.41,83.08,6.1,30,20.87,50.98,29.74,61.75-3.52-.29-8.34-1.12-13.45-3.53-15.4-7.28-25.68-24.95-30.22-40.74-6.15-21.38-8.42-44.21-5.75-66.32,2.83-23.45,11.48-46.37,26.06-64.95,12.52-15.96,25.25-32.84,30.79-52.68,5.25-18.77,6.93-38.81,5.47-58.21-4.92,10.47-10.29,21.27-16.13,32.33-5.37,10.16-10.77,19.86-16.16,29.1Z"/>
  <path class="st0" d="M300.93,264.39c-17.03-15.69-40.4-34.11-70.69-50.43-44.45-23.96-85.73-33.67-114.23-37.93,2.1,10.58,14.32,66.43,68.54,102.59,55.68,37.13,113.65,25.47,123.71,23.28-10.47-3.21-31.26-11.31-47.42-31.47-5.55-6.93-9.39-13.83-12.07-19.83,8.65,5.26,21.88,11.55,38.79,13.36,4.79.51,9.27.6,13.36.43Z"/>
</svg>