<?xml version="1.0" encoding="UTF-8"?>
<svg id="katman_1" xmlns="http://www.w3.org/2000/svg" version="1.1" viewBox="0 0 525 150">
  <!-- Generator: Adobe Illustrator 30.3.0, SVG Export Plug-In . SVG Version: 2.1.3 Build 182)  -->
  <rect x="15.64" y="33.61" width="15.73" height="106.55" fill="#6bbeaf"/>
  <g>
    <path d="M419.09,33.72c-1.36-6.31-.11-9.73,1.35-11.7,2.02-2.72,4.97-3.34,7.64-7.44,1.26-1.94,1.9-3.78,2.23-5,3.77,11.13,2.07,17.22-.07,20.69-3.01,4.88-8.73,5.15-11.36,11.83-.46,1.18-1.73,4.52-.88,8.69.64,3.14,2.18,5.33,3.11,6.46-.37-.03-.87-.12-1.41-.37-1.61-.76-2.69-2.61-3.16-4.26-.64-2.24-.88-4.62-.6-6.94.3-2.45,1.2-4.85,2.73-6.79,1.31-1.67,2.64-3.43,3.22-5.51.55-1.96.72-4.06.57-6.09-.51,1.09-1.08,2.22-1.69,3.38-.56,1.06-1.13,2.08-1.69,3.04h0Z" fill="#6bbeaf"/>
    <path d="M416.86,31.42c-1.78-1.64-4.22-3.57-7.39-5.27-4.65-2.5-8.97-3.52-11.94-3.97.22,1.11,1.5,6.95,7.17,10.73,5.82,3.88,11.88,2.66,12.94,2.43-1.09-.34-3.27-1.18-4.96-3.29-.58-.72-.98-1.45-1.26-2.07.9.55,2.29,1.21,4.06,1.4.5.05.97.06,1.4.05h-.02Z" fill="#6bbeaf"/>
    <rect x="108.01" y="56.16" width="14.2" height="83.71" fill="#6bbeaf"/>
    <path d="M28.23,90.65c17.26-17.67,34.53-35.34,51.79-53.01h18.53c-14.72,14.72-29.44,29.44-44.16,44.16,16.16,19.36,32.32,38.71,48.48,58.07h-19.47c-13.07-16.5-26.14-32.99-39.21-49.49-4.99,4.99-9.98,9.98-14.96,14.96-.33-4.9-.66-9.79-.99-14.69h0Z" fill="#6bbeaf"/>
    <path d="M153.44,56.16h-45.44v48.68h45.44c1.74,0,3.43-.18,5.06-.52,4.69-1,8.89-3.34,12.15-6.6,4.41-4.41,7.13-10.49,7.13-17.21,0-13.44-10.9-24.34-24.34-24.34h0ZM151.72,95.51h-29.51v-30.83h29.51c7.63,0,13.83,6.92,13.83,15.41s-6.21,15.42-13.83,15.42Z" fill="#6bbeaf"/>
    <rect x="116.79" y="64.68" width="5.42" height="30.83" fill="#6bbeaf"/>
    <path d="M144.34,102c7.87,12.62,15.75,25.24,23.62,37.86h13.53c-8.36-12.92-16.71-25.84-25.07-38.76l-12.08.9h0Z" fill="#6bbeaf"/>
    <rect x="184.45" y="56.16" width="13.88" height="83.7" fill="#6bbeaf"/>
    <rect x="184.45" y="56.16" width="65" height="9.51" fill="#6bbeaf"/>
    <rect x="184.45" y="130.36" width="65" height="9.51" fill="#6bbeaf"/>
    <rect x="184.45" y="92.22" width="61.57" height="9.51" fill="#6bbeaf"/>
    <path d="M257.71,56.16h14.64c8.69,22.94,17.38,45.89,26.07,68.83,8.47-22.94,16.95-45.89,25.42-68.83h14.6v83.7h-10.97v-69.64c-8.42,23.4-16.85,46.8-25.27,70.2h-7.17c-9.06-23.8-18.12-47.61-27.18-71.41v70.86h-10.14V56.16h0Z" fill="#6bbeaf"/>
    <path d="M388.55,56.16h-12.98c-11.6,27.9-23.21,55.8-34.82,83.71h13.36c3.25-8.42,6.49-16.83,9.74-25.24h36.24c3.36,8.41,6.72,16.83,10.08,25.24h12.29c-11.31-27.91-22.61-55.81-33.92-83.71h.01ZM367.81,105.79c4.6-12.98,9.2-25.96,13.8-38.94,5.02,12.98,10.04,25.96,15.05,38.94h-28.85,0Z" fill="#6bbeaf"/>
    <rect x="442.02" y="37.91" width="15.69" height="101.96" fill="#6bbeaf"/>
    <rect x="442.02" y="127.43" width="67.34" height="12.99" fill="#6bbeaf"/>
  </g>
</svg>