<?xml version="1.0" encoding="UTF-8"?>
<svg xmlns="http://www.w3.org/2000/svg" viewBox="0 0 512 512">
  <rect width="512" height="512" rx="64" fill="#ffffff"/>
  <g transform="translate(156, 96) scale(2.67)">
    <path d="M45.68,6.17v18.41c-2.48-2.99-5.54-4.93-9.18-5.83-1.02,2.15-.57,5.38,1.34,9.65,1.32.66,2.54,1.56,3.67,2.68,2.75,2.78,4.14,6.12,4.17,10.03v.04c-.03,3.91-1.42,7.25-4.17,10.03-2.78,2.75-6.12,4.13-10.03,4.13-2.92,0-5.51-.76-7.78-2.27h-.03c1.56,4.35,4.25,8.14,7.77,11h.04c5.93,0,10.66-2.12,14.2-6.37v5.27h8.73V6.17h-8.73ZM15.27,24.89c-1.71,1.71-3.1,3.56-4.16,5.55.07.55.15,1.11.24,1.66.6,3.55,1.7,7,3.26,10.24-.46-4.03.05-7.75,1.53-11.12,2.25-5.1,6.75-9.45,13.44-12.97-5.53.41-10.3,2.63-14.31,6.66v-.02Z" fill="#1a1a1a"/>
    <path d="M61.56,6.17v56.76h8.73V6.17h-8.73Z" fill="#1a1a1a"/>
    <path d="M36.39,16.62c-18.32,7.02-24.44,18.24-18.36,33.64-8.39-10.59-10.77-24.75-6.29-37.5-7.66,10.21-9.18,23.77-3.97,35.43,5.21,11.65,16.34,19.56,29.06,20.65-7.17-3.11-12.6-9.22-14.84-16.7-2.24-7.48-1.07-15.57,3.2-22.11-3.28,6.64-3.83,13.87-1.66,21.69,11.9-6.79,16.27-14.38,13.12-22.76-2.58-5.74-2.66-9.85-.26-12.34Z" fill="#1a1a1a" fill-rule="evenodd"/>
  </g>
</svg>
