<svg width="547" height="330" viewBox="0 0 547 330" fill="none" xmlns="http://www.w3.org/2000/svg">
<path d="M530.57 212.24C530.48 237.61 508.16 258.35 483.94 265.89C459.72 273.43 433.72 270.97 408.37 269.97C348.56 267.61 288.41 273.84 230.37 288.4C197.71 296.61 165.52 307.45 132.04 311.14C98.5801 314.82 62.76 310.54 35.37 290.97C7.98003 271.37 -8.10991 233.86 4.19009 202.52C20.7001 160.45 74.34 149.17 108.27 119.32C127.59 102.31 140.3 79.2601 154.46 57.7501C168.62 36.2501 185.66 15.0601 209.45 5.21006C224.89 -1.17994 254.5 -4.26991 282.09 11.4901C310.85 27.9301 345.79 28.86 375.36 13.93C380.51 11.33 385.36 9.1701 389.56 7.7501C413.58 -0.379899 445.3 4.95007 455.96 27.9701C466.08 49.8101 452.86 75.6301 456.89 99.3601C464.6 144.81 530.75 166.14 530.57 212.24Z" fill="#DCD5E1"/>
<path d="M542.078 214.19C542.408 236.46 525.588 254.57 506.588 263.89C482.508 275.71 454.088 274.04 428.018 273.58C371.258 272.57 314.468 278.85 259.388 292.66C207.498 305.68 155.748 329.36 101.108 323.79C77.6277 321.39 53.7577 313.13 36.4977 296.53C21.2377 281.85 10.8577 261.08 10.9777 239.66C11.2277 196.35 54.2177 175.75 85.9777 156.16C94.4177 150.95 102.708 145.47 110.408 139.22C119.458 131.86 127.248 123.23 134.178 113.87C148.998 93.8703 159.728 71.1902 174.598 51.2202C187.608 33.7302 204.568 17.5103 226.358 12.3503C236.858 9.86025 247.948 9.4702 258.618 11.0502C264.988 12.0002 271.258 13.6602 277.268 15.9702C283.488 18.3602 289.198 21.8302 295.338 24.4202C317.958 33.9302 343.758 34.9902 367.048 27.2002C378.788 23.2702 389.038 15.9702 400.898 12.4202C410.098 9.6702 419.988 8.81022 429.498 10.1902C438.748 11.5402 447.978 15.0602 454.818 21.5902C462.828 29.2602 465.898 39.9103 466.078 50.7603C466.288 63.2703 463.608 75.6002 463.388 88.0802C463.218 97.8902 464.908 107.35 469.098 116.24C476.428 131.74 489.548 143.73 502.038 155.07C514.408 166.3 527.928 177.54 536.038 192.43C539.698 199.15 541.858 206.52 542.078 214.19C542.178 217.31 547.028 217.32 546.938 214.19C546.428 196.89 536.888 182.5 525.288 170.35C512.998 157.49 498.718 146.68 486.828 133.43C481.118 127.07 475.978 120.06 472.568 112.18C468.138 101.96 467.778 91.0102 468.678 80.0502C469.688 67.6602 472.048 55.1803 470.318 42.7503C468.868 32.3403 464.038 22.6603 455.798 16.0103C440.408 3.59029 417.988 2.24027 399.608 7.74027C387.728 11.2903 377.498 18.5903 365.748 22.5203C353.588 26.5903 340.708 28.2202 327.918 27.3202C314.968 26.4102 302.178 22.8303 290.638 16.9003C278.908 10.8903 266.868 6.77028 253.668 5.63028C243.058 4.71028 232.138 5.58027 221.878 8.49027C211.588 11.4103 202.248 16.8802 193.938 23.5502C174.648 39.0302 161.788 60.7203 149.248 81.6403C136.468 102.94 123.098 123.76 102.978 138.9C86.6077 151.23 68.2378 160.5 51.1978 171.81C35.0278 182.54 19.5377 195.63 11.6277 213.82C2.97773 233.73 5.2777 256.1 14.8477 275.24C25.2677 296.08 43.3378 311.34 64.7778 320C115.938 340.66 171.448 323.57 221.488 308.4C249.248 299.99 277.238 292.75 305.818 287.76C334.738 282.7 364.008 279.67 393.358 278.67C407.728 278.18 422.078 278.33 436.448 278.59C450.498 278.84 464.598 278.88 478.538 276.92C501.828 273.63 524.548 263.4 537.998 243.33C543.778 234.71 547.088 224.6 546.938 214.19C546.888 211.07 542.038 211.06 542.078 214.19Z" fill="#6F2476"/>
</svg>
