<svg width="505" height="304" viewBox="0 0 505 304" fill="none" xmlns="http://www.w3.org/2000/svg">
    <path d="M489.311 195.736C489.228 219.133 468.644 238.26 446.307 245.214C423.971 252.167 399.992 249.899 376.614 248.976C321.455 246.8 265.982 252.545 212.456 265.973C182.335 273.545 152.649 283.542 121.772 286.945C90.9141 290.339 57.8796 286.391 32.6195 268.343C7.35947 250.267 -7.47925 215.674 3.86426 186.771C19.0904 147.973 68.5591 137.57 99.8506 110.041C117.668 94.3541 129.39 73.0966 142.449 53.2593C155.508 33.4312 171.223 13.8889 193.163 4.80491C207.402 -1.08818 234.709 -3.93787 260.154 10.5966C286.677 25.7582 318.9 26.6158 346.171 12.8468C350.92 10.449 355.393 8.457 359.267 7.14743C381.419 -0.350357 410.672 4.56514 420.503 25.795C429.836 45.9367 417.644 69.7488 421.361 91.6335C428.471 133.549 489.477 153.22 489.311 195.736Z"
          fill="#E3D7C1"/>
    <path d="M499.924 197.534C500.228 218.072 484.716 234.774 467.193 243.369C444.986 254.27 418.776 252.73 394.733 252.306C342.387 251.374 290.013 257.166 239.217 269.902C191.362 281.909 143.636 303.748 93.2449 298.611C71.5908 296.398 49.577 288.78 33.6592 273.471C19.5859 259.933 10.0131 240.778 10.1237 221.023C10.3543 181.081 50.0012 162.083 79.2915 144.017C87.0752 139.212 94.7205 134.158 101.822 128.394C110.168 121.606 117.352 113.647 123.743 105.015C137.411 86.5706 147.306 65.6543 161.02 47.2372C173.018 31.1073 188.66 16.1486 208.755 11.3899C218.439 9.0935 228.666 8.73378 238.506 10.1909C244.381 11.067 250.164 12.598 255.706 14.7284C261.442 16.9325 266.708 20.1326 272.371 22.5212C293.232 31.2917 317.026 32.2693 338.505 25.0851C349.332 21.4607 358.785 14.7283 369.722 11.4544C378.207 8.91822 387.328 8.12512 396.098 9.3978C404.629 10.6428 413.141 13.8891 419.449 19.9113C426.836 26.9849 429.668 36.8067 429.834 46.813C430.027 58.3502 427.556 69.7213 427.353 81.2308C427.196 90.278 428.755 99.0023 432.619 107.201C439.379 121.496 451.479 132.553 462.997 143.011C474.405 153.368 486.874 163.734 494.353 177.466C497.729 183.664 499.721 190.461 499.924 197.534C500.016 200.411 504.489 200.421 504.406 197.534C503.935 181.579 495.137 168.308 484.439 157.103C473.105 145.243 459.936 135.274 448.97 123.054C443.704 117.189 438.964 110.724 435.819 103.457C431.733 94.0314 431.401 83.9329 432.232 73.8252C433.163 62.3987 435.339 50.8893 433.744 39.4259C432.407 29.8254 427.952 20.8982 420.353 14.7653C406.16 3.3111 385.483 2.06607 368.533 7.13837C357.576 10.4123 348.142 17.1447 337.306 20.7691C326.091 24.5226 314.213 26.0257 302.417 25.1957C290.474 24.3565 278.679 21.0549 268.036 15.5861C257.219 10.0434 246.115 6.24381 233.941 5.19246C224.156 4.34401 214.086 5.14634 204.623 7.83005C195.134 10.523 186.52 15.5676 178.856 21.7189C161.066 35.9951 149.206 55.9985 137.641 75.2917C125.855 94.9353 113.525 114.136 94.9695 128.099C79.8725 139.47 62.9311 148.019 47.2162 158.45C32.3036 168.345 18.0181 180.417 10.7232 197.193C2.74587 215.555 4.86698 236.185 13.6928 253.837C23.3025 273.056 39.9674 287.129 59.7401 295.116C106.922 314.169 158.115 298.408 204.264 284.418C229.865 276.662 255.679 269.985 282.036 265.383C308.707 260.717 335.701 257.922 362.769 257C376.021 256.548 389.255 256.686 402.508 256.926C415.465 257.157 428.469 257.194 441.325 255.386C462.804 252.352 483.757 242.917 496.161 224.408C501.491 216.458 504.544 207.135 504.406 197.534C504.36 194.657 499.887 194.647 499.924 197.534Z"
          fill="#8B5123"/>
</svg>
