<?xml version="1.0" encoding="utf-8"?>
<!-- Generator: Adobe Illustrator 27.0.0, SVG Export Plug-In . SVG Version: 6.00 Build 0)  -->
<svg version="1.1" id="Layer_1" xmlns="http://www.w3.org/2000/svg" xmlns:xlink="http://www.w3.org/1999/xlink" x="0px" y="0px"
	 viewBox="0 0 423.28 210.09" style="enable-background:new 0 0 423.28 210.09;" xml:space="preserve">
<style type="text/css">
	.st0{fill:#0D519B;}
	.st1{fill:#1DA9E0;}
	.st2{fill:#1F5AA5;}
</style>
<g>
	<path class="st0" d="M102.23,102.45l3.55-6.74l0.35,0.35c1.52,1.44,3.13,2.17,4.83,2.17c0.53,0,1-0.1,1.43-0.3
		c0.53-0.26,0.82-0.63,0.88-1.11c0.07-0.48-0.09-0.82-0.48-1.01c-0.19-0.11-0.57-0.22-1.14-0.32l-1.62-0.32
		c-1.46-0.28-2.64-0.83-3.53-1.66c-1.01-0.94-1.51-2.14-1.51-3.62c0-0.29,0.03-0.64,0.09-1.04c0.41-2.71,1.76-4.89,4.06-6.55
		c2.11-1.52,4.48-2.28,7.11-2.28c2.63,0,4.93,0.7,6.89,2.1l-3.16,6.09c-1.49-1.2-3-1.8-4.52-1.8c-1.17,0-1.82,0.42-1.95,1.27
		c-0.06,0.37,0.1,0.66,0.46,0.86c0.15,0.08,0.48,0.18,1.01,0.32l1.82,0.44c3.38,0.83,5.07,2.69,5.07,5.58
		c0,0.43-0.03,0.85-0.09,1.25c-0.4,2.68-1.75,4.81-4.06,6.42c-2.05,1.4-4.4,2.1-7.06,2.1C107.53,104.62,104.73,103.9,102.23,102.45
		 M122.41,104.25l3.58-23.85h15.25l-0.94,6.5h-6.96l-0.37,2.28h6.36l-0.94,6.21h-6.34l-0.33,2.33h7.17l-0.99,6.53H122.41z
		 M139.82,102.45l3.55-6.74l0.35,0.35c1.52,1.44,3.13,2.17,4.83,2.17c0.53,0,1-0.1,1.43-0.3c0.53-0.26,0.82-0.63,0.88-1.11
		c0.07-0.48-0.09-0.82-0.48-1.01c-0.19-0.11-0.57-0.22-1.14-0.32l-1.62-0.32c-1.46-0.28-2.64-0.83-3.53-1.66
		c-1.01-0.94-1.51-2.14-1.51-3.62c0-0.29,0.03-0.64,0.09-1.04c0.41-2.71,1.77-4.89,4.06-6.55c2.11-1.52,4.47-2.28,7.11-2.28
		c2.63,0,4.93,0.7,6.89,2.1l-3.16,6.09c-1.49-1.2-3-1.8-4.52-1.8c-1.17,0-1.82,0.42-1.95,1.27c-0.06,0.37,0.09,0.66,0.46,0.86
		c0.15,0.08,0.48,0.18,1.01,0.32l1.82,0.44c3.38,0.83,5.07,2.69,5.07,5.58c0,0.43-0.03,0.85-0.09,1.25
		c-0.4,2.68-1.75,4.81-4.06,6.42c-2.05,1.4-4.4,2.1-7.06,2.1C145.12,104.62,142.32,103.9,139.82,102.45 M172.12,104.25l3.58-23.85
		h8.03l-1.71,10.33h0.17c0.16-0.49,0.68-1.39,1.54-2.68l5.13-7.66h8.99L189.02,92l6.01,12.25h-9.57l-2.83-7.22
		c-0.15-0.31-0.35-0.76-0.62-1.36c-0.22-0.51-0.34-0.98-0.35-1.43h-0.18l-1.34,10.01H172.12z M196.25,104.25l3.58-23.85h8.25
		l-3.58,23.85H196.25z M206.82,104.25l7.24-23.85h8.49l1.27,12.52h0.2c0.16-0.6,0.51-1.66,1.06-3.16l3.95-9.36h8.4l0.16,23.85h-7.99
		l0.86-13.08h-0.15c-0.4,1.17-0.69,1.96-0.88,2.38l-4.91,10.71h-4.81l-1.43-10.11c-0.13-0.98-0.16-1.98-0.09-2.98h-0.26
		c-0.18,0.91-0.39,1.87-0.64,2.88l-2.5,10.2H206.82z M241.23,80.4h9.35l1.58,6.23h0.24c0.19-0.43,0.55-1.18,1.1-2.26l2.22-3.97h9.28
		l-9.81,13.56l-1.54,10.29h-8.08l1.54-10.29L241.23,80.4z M270.25,101.27l-1.1,2.98h-8.73L271.9,80.4H281l4.52,23.85h-8.73
		l-0.31-2.98H270.25z M272.58,95.6h3.31l-0.33-4.2c-0.04-0.51-0.07-1.53-0.07-3.07h-0.3L272.58,95.6z M306.39,101.27l-1.1,2.98
		h-8.73l11.47-23.85h9.11l4.52,23.85h-8.73l-0.31-2.98H306.39z M308.72,95.6h3.31l-0.33-4.2c-0.04-0.51-0.06-1.53-0.06-3.07h-0.31
		L308.72,95.6z M328.34,96.68c1.04,0,1.93,0.28,2.68,0.85c0.82,0.65,1.23,1.5,1.23,2.56c0,1.34-0.55,2.44-1.65,3.32
		c-1.01,0.8-2.17,1.2-3.47,1.2c-1.05,0-1.95-0.28-2.69-0.83c-0.83-0.61-1.25-1.45-1.25-2.51c0-1.32,0.56-2.44,1.67-3.35
		C325.88,97.1,327.04,96.68,328.34,96.68 M333.84,102.45l3.55-6.74l0.35,0.35c1.52,1.44,3.13,2.17,4.83,2.17c0.53,0,1-0.1,1.43-0.3
		c0.53-0.26,0.82-0.63,0.88-1.11c0.07-0.48-0.09-0.82-0.48-1.01c-0.19-0.11-0.57-0.22-1.14-0.32l-1.62-0.32
		c-1.46-0.28-2.64-0.83-3.53-1.66c-1.01-0.94-1.51-2.14-1.51-3.62c0-0.29,0.03-0.64,0.09-1.04c0.41-2.71,1.76-4.89,4.06-6.55
		c2.11-1.52,4.48-2.28,7.11-2.28c2.63,0,4.93,0.7,6.89,2.1l-3.16,6.09c-1.49-1.2-3-1.8-4.52-1.8c-1.17,0-1.82,0.42-1.95,1.27
		c-0.06,0.37,0.1,0.66,0.46,0.86c0.15,0.08,0.48,0.18,1.01,0.32l1.82,0.44c3.38,0.83,5.07,2.69,5.07,5.58
		c0,0.43-0.03,0.85-0.09,1.25c-0.39,2.68-1.75,4.81-4.06,6.42c-2.05,1.4-4.4,2.1-7.06,2.1C339.15,104.62,336.35,103.9,333.84,102.45
		 M359.68,96.68c1.04,0,1.93,0.28,2.68,0.85c0.82,0.65,1.23,1.5,1.23,2.56c0,1.34-0.55,2.44-1.64,3.32c-1.01,0.8-2.16,1.2-3.47,1.2
		c-1.05,0-1.95-0.28-2.7-0.83c-0.83-0.61-1.25-1.45-1.25-2.51c0-1.32,0.55-2.44,1.67-3.35C357.22,97.1,358.38,96.68,359.68,96.68
		 M342.17,105.26c0.84,0,1.57,0.23,2.17,0.69c0.66,0.52,1,1.22,1,2.08c0,1.09-0.44,1.99-1.33,2.7c-0.82,0.65-1.75,0.97-2.81,0.97
		c-0.85,0-1.58-0.22-2.19-0.67c-0.67-0.5-1.01-1.18-1.01-2.04c0-1.07,0.45-1.98,1.36-2.71
		C340.17,105.59,341.12,105.26,342.17,105.26"/>
	<path class="st0" d="M204.27,71.61c0-0.59,0.48-1.06,1.06-1.06c0.59,0,1.06,0.47,1.06,1.06c0,0.59-0.48,1.06-1.06,1.06
		C204.75,72.68,204.27,72.2,204.27,71.61 M203.71,69.56l-7.34-5.03l6.4,6.18l-6.74-1.09l6.44,2.46l-2.86,1.49l3.69-0.82l-3.73,4.59
		l4.57-3.31l-0.41,3.09l1.38-3.22l1.94,3.45l-0.67-3.7l4.55,4.4l-3.22-5.25l2.2,0.73l-1.56-1.52l4.34-0.76l-4.34-0.54l9.63-5.37
		l-10.46,4.32l3.18-6.48l-4.45,6.1l-0.9-8.91l-0.87,8.32l-1.81-2.75L203.71,69.56z"/>
	<path class="st0" d="M49.23,114.1c-13.3-43.51-10.54-82.92,6.17-88.03c8.61-2.63,19.24,4.35,29.34,17.67
		c-3.02-2.2-5.98-3.1-8.72-2.26c-11.06,3.38-9.76,32.84-0.67,62.57c9.09,29.73,24.5,54.87,35.55,51.49
		c3.91-1.19,6.21-5.57,7.24-11.83c0.51,21.33-4.5,36.82-14.56,39.9C86.87,188.73,62.54,157.6,49.23,114.1"/>
	<path class="st1" d="M76.93,103.57c-9.37-30.63-9.56-57.72-0.42-60.51c6.24-1.91,15.22,8.02,23.27,24.27
		c-2.94-3.37-5.78-5.01-8.09-4.31c-5.84,1.78-6.09,17.89-0.56,35.98c5.53,18.09,14.75,31.3,20.59,29.51
		c2.36-0.72,3.81-3.78,4.33-8.37c2.56,18.32,0.7,31.89-5.62,33.82C101.29,156.77,86.29,134.2,76.93,103.57"/>
	<path class="st1" d="M148.76,141.71l-1.24,3.58c-0.37,1.29-0.55,2.26-0.55,2.9c0,0.28,0.05,0.56,0.15,0.84
		c0.1,0.28,0.39,0.42,0.87,0.42c0.28-0.06,0.54-0.29,0.79-0.7c0.24-0.41,0.48-0.9,0.72-1.49c0.24-0.59,0.52-1.48,0.83-2.67
		c0.31-1.19,0.47-2.18,0.47-2.97c0-0.7-0.1-1.29-0.29-1.77l-0.71-0.8c-0.09,0.25-0.17,0.49-0.26,0.72c-0.09,0.22-0.2,0.49-0.34,0.8
		L148.76,141.71z M158.62,120.9c0.08,0.17,0.03,0.44-0.17,0.8l-3.36,6.35l-3.2,5.72l0.66,2.98c0.15,0.63,0.26,1.24,0.35,1.85
		c0.09,0.61,0.13,1.13,0.13,1.55l0.67,0.3h0.54c0.25,0,0.44-0.06,0.58-0.17c0.41-0.17,0.72-0.35,0.91-0.55l0.83-0.97v1.51
		c-0.2,0.39-0.43,0.72-0.69,0.99c-0.27,0.27-0.55,0.47-0.86,0.61l-0.63,0.13c-0.53,0-0.98-0.1-1.35-0.29c0,1.85-0.28,3.66-0.84,5.43
		c-0.5,1.85-1.42,3.27-2.73,4.25c-0.7,0.48-1.42,0.71-2.14,0.71l-1.22-0.21c-0.65-0.14-1.15-0.67-1.51-1.58
		c-0.36-0.91-0.55-1.79-0.55-2.63c0-0.62,0.04-1.22,0.13-1.81s0.24-1.21,0.46-1.85c0.31-1.18,0.9-2.76,1.77-4.76l1.18-3.11
		l-0.38-0.84l-0.21-1.18c0.08-0.59,0.33-1.07,0.73-1.45c0.4-0.38,0.88-0.61,1.44-0.69l2.82-5.51c0.17-0.36,0.37-0.77,0.59-1.22
		c0.23-0.45,0.44-0.8,0.63-1.05l0.8-1.35l1.05-1.89c0.14-0.14,0.65-0.28,1.52-0.42l1.14-0.13
		C158.14,120.41,158.45,120.56,158.62,120.9"/>
	<path class="st1" d="M163.41,134.1l-0.76-0.08c-0.28,0-0.7,0.14-1.26,0.42c-0.62,0.25-1.24,1.02-1.87,2.31
		c-0.63,1.29-1.02,2.31-1.16,3.07l-0.17,1.73c0,0.45,0.04,0.78,0.13,1.01c0.08,0.23,0.25,0.43,0.5,0.61
		c0.25,0.18,0.58,0.3,0.97,0.36l0.8-0.17c0.31-0.11,0.64-0.35,1.01-0.71c0.36-0.36,0.73-0.87,1.09-1.51l0.21-0.5
		c-0.2-0.34-0.37-0.71-0.51-1.14l-0.17-1.22v-0.5l0.13-0.72c0-0.2,0.06-0.39,0.17-0.59l0.5-0.67c0.22-0.22,0.62-0.38,1.18-0.46
		c0-0.36-0.06-0.63-0.19-0.8C163.9,134.35,163.7,134.22,163.41,134.1 M165.85,141.13l0.67,0.17c0.53,0,1.15-0.29,1.85-0.88
		c0.7-0.59,1.3-1.3,1.81-2.14l0.42,1.51c-0.34,0.7-0.92,1.38-1.77,2.02c-0.84,0.65-1.66,0.97-2.44,0.97c-0.39,0-0.77-0.1-1.14-0.29
		c-0.84,1.34-1.73,2.31-2.65,2.9c-0.42,0.28-0.88,0.49-1.37,0.63c-0.49,0.14-1.07,0.21-1.75,0.21c-0.65,0-1.36-0.21-2.15-0.63
		c-0.79-0.42-1.34-0.88-1.66-1.37c-0.32-0.49-0.55-0.97-0.69-1.45l-0.13-1.51c0-1.49,0.24-2.72,0.71-3.7
		c0.59-1.49,1.37-2.77,2.35-3.85c0.98-1.08,1.94-1.75,2.86-2l1.98-0.29c0.67,0,1.3,0.09,1.87,0.27c0.57,0.18,1.07,0.48,1.49,0.9
		c0.42,0.42,0.71,0.88,0.88,1.39c0.08,0.25,0.15,0.5,0.21,0.74c0.06,0.24,0.08,0.51,0.08,0.82v0.72c0,0.34-0.07,0.76-0.22,1.26
		c-0.03,0.23-0.09,0.51-0.18,0.84c-0.09,0.34-0.19,0.67-0.31,1.01C166.4,140.06,166.15,140.65,165.85,141.13"/>
	<path class="st1" d="M175.99,143.44c0.78,0.17,1.77-0.37,2.97-1.62c1.19-1.25,2.08-2.29,2.67-3.13v1.76
		c-1.01,1.34-2.29,2.64-3.83,3.89c-1.54,1.26-2.89,1.88-4.04,1.88c-0.34,0-0.74-0.15-1.22-0.46c-0.42-0.33-0.72-0.7-0.9-1.1
		c-0.18-0.4-0.27-0.79-0.27-1.15c0-0.78,0.25-1.65,0.76-2.63l1.68-2.86c0.65-0.98,0.98-1.58,1.01-1.81c0.03-0.2-0.04-0.29-0.21-0.29
		l-1.14,0.17c-0.34,0-0.72-0.06-1.14-0.17l-1.18,2.35c-0.5,1.07-1.29,2.13-2.35,3.2l-0.29-1.47c0.31-0.25,0.76-0.96,1.37-2.12
		c0.6-1.16,0.99-2.03,1.16-2.59c-0.36-0.28-0.55-0.79-0.55-1.51c0-0.42,0.06-0.83,0.19-1.22c0.12-0.39,0.37-0.85,0.74-1.39
		c0.36-0.53,0.77-0.92,1.22-1.18c0.22-0.11,0.43-0.2,0.63-0.25c0.19-0.06,0.43-0.08,0.71-0.08h0.55c0.31,0.23,0.46,0.61,0.46,1.13
		l-0.13,0.52l-0.13,0.65c0,0.17,0.08,0.35,0.25,0.52c0.17,0.11,0.41,0.11,0.71,0l0.59-0.42l0.46-0.17l3.45,0.29
		c0.53,0,0.8,0.25,0.8,0.76c0,0.25-0.41,0.97-1.22,2.15l-2.44,3.53l-1.39,2.27l-0.59,1.22l-0.13,0.55c0,0.22,0.07,0.41,0.21,0.55
		L175.99,143.44z"/>
	<path class="st1" d="M194.24,146.93c-0.68,0.92-1.32,2.09-1.92,3.51c-0.6,1.42-0.9,2.53-0.9,3.35l0.13,0.59
		c0.08,0.25,0.24,0.38,0.46,0.38l0.46-0.13l0.59-0.72c0.22-0.28,0.5-0.95,0.82-2c0.32-1.05,0.48-2.08,0.48-3.09v-0.76L194.24,146.93
		z M192.01,142.56c0.51-0.56,1.32-1.79,2.44-3.7c1.12-1.91,1.68-3.14,1.68-3.7c0-0.28-0.07-0.49-0.21-0.63
		c-0.08-0.17-0.24-0.29-0.46-0.38c-0.28-0.08-0.6-0.06-0.95,0.08c-0.35,0.14-0.83,0.5-1.45,1.09c-0.65,0.53-1.37,1.52-2.19,2.97
		c-0.81,1.44-1.22,2.66-1.22,3.64c0,0.39,0.07,0.72,0.21,0.97c0.14,0.17,0.39,0.28,0.76,0.34
		C191.1,143.23,191.57,143.01,192.01,142.56 M197.53,133.09c0.17,0,0.34-0.13,0.5-0.38c0.17-0.25,0.36-0.39,0.59-0.42h2.1
		c0.39,0,0.66,0.03,0.8,0.08c0.14,0.06,0.25,0.21,0.34,0.46c0.06,0.17-0.08,0.58-0.42,1.22l-1.22,2.27l-4.42,7.74l1.01,0.17
		c1.26,0,2.5-0.54,3.7-1.62c1.21-1.08,2.45-2.39,3.74-3.93v1.77c-1.59,1.99-2.88,3.39-3.87,4.21c-0.99,0.82-1.99,1.35-2.99,1.6
		l-1.34,0.17l0.08,0.5v0.5v0.67c0,0.81-0.04,1.58-0.13,2.29c-0.08,0.71-0.24,1.49-0.46,2.33c-0.34,1.51-0.9,2.58-1.7,3.2
		c-0.8,0.62-1.54,0.92-2.21,0.92l-1.14-0.25c-0.62-0.11-1.06-0.6-1.35-1.47c-0.22-0.84-0.34-1.51-0.34-2.02
		c0-0.84,0.13-1.67,0.38-2.48l1.47-4l0.38-0.93l-1.51,0.21c-0.76,0-1.39-0.21-1.89-0.63c-0.39-0.39-0.69-0.88-0.88-1.47
		c-0.2-0.59-0.29-1.19-0.29-1.81c0-0.11,0.01-0.34,0.04-0.69c0.03-0.35,0.1-0.91,0.23-1.66c0.13-0.76,0.66-1.97,1.6-3.64
		c0.94-1.67,2.22-2.8,3.85-3.39c0.76-0.31,1.47-0.46,2.15-0.46c0.62,0,1.16,0.1,1.64,0.29L197.53,133.09z"/>
	<path class="st1" d="M209.55,132.46l-1.47,2.69l-1.14,2.23l-1.68,3.53l-0.17,0.76c0,0.34,0.11,0.53,0.32,0.59
		c0.21,0.06,0.4,0.08,0.57,0.08c0.25,0,0.45-0.06,0.59-0.17l0.46-0.42l0.29-0.38l0.88-1.52l3.2-6.39c0.28-0.56,0.54-0.92,0.78-1.07
		c0.24-0.15,0.61-0.23,1.11-0.23h1.09c0.65,0,1.08,0.17,1.3,0.5c0.08,0.08,0.04,0.34-0.13,0.76l-1.3,2.44l-0.38,0.63
		c-0.37,0.65-0.73,1.37-1.09,2.19c-0.11,0.25-0.32,0.74-0.63,1.47c-0.45,1.23-0.63,2.16-0.55,2.78c0.08,0.37,0.36,0.55,0.84,0.55
		l0.84-0.17c0.36-0.08,1.13-0.71,2.29-1.87c1.16-1.16,1.98-2.08,2.46-2.75v1.77c-1.09,1.37-2.33,2.69-3.72,3.95
		c-1.39,1.26-2.57,1.89-3.55,1.89h-0.38l-1.01-0.34c-0.53-0.17-1.06-0.81-1.6-1.94c-0.87,0.67-1.67,1.18-2.4,1.52
		c-0.76,0.28-1.35,0.42-1.77,0.42l-0.97-0.17c-0.45-0.08-0.81-0.39-1.07-0.91c-0.27-0.52-0.4-1.03-0.4-1.53
		c0-0.59,0.13-1.3,0.38-2.15c0.14-0.42,0.29-0.84,0.44-1.26c0.15-0.42,0.33-0.84,0.53-1.26l1.22-2.65l1.35-2.73l0.55-1.01
		c0.2-0.31,0.45-0.49,0.76-0.55h2.65c0.42,0,0.63,0.11,0.63,0.34L209.55,132.46z"/>
	<path class="st1" d="M221.67,135.9l-0.84,1.59l-0.8,2.35c-0.25,0.92-0.38,1.62-0.38,2.09c0,0.73,0.25,1.16,0.76,1.3
		c0.65,0.11,1.43-0.39,2.36-1.51c0.87-1.17,1.6-2.46,2.19-3.85l0.93-2.39l0.08-0.59c0-0.14-0.09-0.36-0.27-0.65
		c-0.18-0.29-0.55-0.44-1.11-0.44c-0.2,0-0.46,0.06-0.8,0.17c-0.34,0.11-0.7,0.33-1.09,0.67C222.4,134.9,222.06,135.31,221.67,135.9
		 M227.56,132.13c0.42-0.61,0.74-0.93,0.97-0.96l1.14-0.09l1.94,0.13c0.17,0,0.27,0.11,0.29,0.34l-0.13,0.46l-3.28,6.14l-1.18,2.31
		c-0.14,0.34-0.25,0.62-0.32,0.86c-0.07,0.24-0.12,0.5-0.15,0.78c0,0.34,0.14,0.59,0.42,0.76l0.76,0.17c0.5,0,1.01-0.25,1.51-0.76
		c0.48-0.42,0.74-0.66,0.8-0.72c0.42-0.39,0.79-0.78,1.11-1.16c0.32-0.38,0.57-0.66,0.74-0.84c0.17-0.18,0.38-0.47,0.63-0.86v1.76
		c-1.09,1.42-2.38,2.74-3.85,3.95c-1.47,1.21-2.74,1.82-3.81,1.82c-1.01,0-1.68-0.67-2.02-2.02c-0.5,0.66-1.06,1.16-1.66,1.5
		c-0.6,0.34-1.24,0.51-1.91,0.51c-0.48,0-0.97-0.2-1.49-0.61c-0.52-0.4-0.94-0.98-1.26-1.72c-0.32-0.74-0.48-1.55-0.48-2.41
		c0-1.01,0.17-2.03,0.51-3.08c0.34-1.05,0.88-2.19,1.62-3.44c0.74-1.25,1.63-2.22,2.67-2.91c1.04-0.64,2.07-0.97,3.11-0.97
		c0.5,0,0.85,0.02,1.05,0.06c0.2,0.04,0.49,0.13,0.88,0.27C226.84,131.58,227.3,131.82,227.56,132.13"/>
	<path class="st1" d="M246.36,117.99l-3.11,5.68l-3.15,5.97l-4.33,9.17l-0.76,1.81c-0.17,0.56-0.28,1.12-0.34,1.68v0.25l0.17,0.5
		c0.08,0.17,0.35,0.27,0.8,0.29l0.76-0.13c0.34-0.08,1.14-0.76,2.4-2.02c0.59-0.59,1.09-1.11,1.49-1.58
		c0.41-0.46,0.74-0.88,0.99-1.24v1.84c-0.2,0.39-0.78,1.06-1.74,2.01c-0.62,0.64-0.95,0.98-0.98,1c-0.34,0.31-0.81,0.73-1.42,1.28
		c-0.61,0.54-1.2,0.96-1.78,1.25c-0.58,0.29-1.15,0.44-1.72,0.44l-1.1-0.17c-0.57-0.08-0.98-0.36-1.23-0.84l-0.38-1.22v-1.01
		c0-0.59,0.02-1.01,0.06-1.28c0.04-0.27,0.16-0.71,0.34-1.34c0.18-0.63,0.35-1.11,0.49-1.45c0.06-0.14,0.24-0.54,0.55-1.21
		l1.69-3.64l2.78-5.68c0.68-1.34,1.24-2.46,1.69-3.36c0.68-1.29,1.2-2.27,1.57-2.94l1.91-3.76c0.11-0.25,0.29-0.55,0.55-0.89
		c0.03-0.03,0.06-0.08,0.08-0.17l0.84-0.13h2.52c0.33,0,0.52,0.11,0.55,0.34L246.36,117.99z"/>
	<path class="st1" d="M247.49,125.35h0.42c0.64,0,1.05,0.21,1.22,0.63l0.21,1.05c0,0.62-0.18,1.23-0.55,1.85
		c-0.23,0.53-0.53,0.95-0.91,1.26c-0.38,0.31-0.79,0.46-1.24,0.46c-0.67,0-1.11-0.14-1.3-0.42c-0.2-0.28-0.32-0.65-0.38-1.1
		c0-0.42,0.09-0.88,0.27-1.38c0.18-0.49,0.51-0.98,0.99-1.46C246.65,125.76,247.07,125.47,247.49,125.35 M247.59,132.53l-3.25,6.57
		L243.5,141c-0.17,0.42-0.25,0.86-0.25,1.3c0,0.2,0.08,0.44,0.25,0.74c0.17,0.29,0.38,0.44,0.63,0.44c0.06,0,0.22-0.03,0.5-0.08
		c0.59-0.17,1.46-0.83,2.61-1.98c1.15-1.15,1.95-2.06,2.4-2.73v1.76c-0.11,0.19-0.31,0.46-0.59,0.79c-0.28,0.33-0.65,0.74-1.1,1.21
		c-0.82,0.89-1.57,1.59-2.25,2.09c-0.57,0.56-1.13,0.98-1.7,1.26c-0.57,0.28-1.17,0.42-1.82,0.42h-0.72c-0.23,0-0.49-0.13-0.78-0.4
		c-0.3-0.27-0.53-0.54-0.7-0.82l-0.25-0.93v-1.01c0-0.5,0.01-0.88,0.04-1.14c0.03-0.25,0.13-0.65,0.29-1.18
		c0.08-0.28,0.22-0.67,0.42-1.18c0.19-0.5,0.38-0.94,0.54-1.3l2.66-5.63c0.08-0.2,0.18-0.38,0.29-0.55
		c0.03-0.06,0.07-0.13,0.13-0.21l0.79-0.17h2.34c0.33,0,0.52,0.11,0.54,0.34L247.59,132.53z"/>
	<path class="st1" d="M256.24,131.83l1.18,0.17c0.31,0.08,0.55,0.21,0.71,0.38c0.08,0.14,0.15,0.34,0.21,0.59
		c0,0.39-0.02,0.66-0.06,0.8c-0.04,0.14-0.23,0.29-0.57,0.46l-1.22,0.21l-1.93,0.04l-0.97,1.89l-1.47,3.32
		c-0.45,1.18-0.67,2-0.67,2.48v0.25l0.21,0.55c0.08,0.23,0.41,0.34,0.97,0.34c0.28,0,0.6-0.06,0.97-0.19
		c0.36-0.13,0.97-0.64,1.81-1.53c0.48-0.48,0.92-0.95,1.32-1.41c0.41-0.46,0.82-0.96,1.24-1.49v1.77l-1.39,1.72l-1.81,1.77
		c-0.73,0.65-1.54,1.16-2.44,1.56c-0.2,0.08-0.55,0.2-1.05,0.34c-0.5,0.14-1,0.21-1.47,0.21c-0.42-0.03-0.8-0.14-1.14-0.34
		c-0.34-0.2-0.63-0.52-0.88-0.97c-0.2-0.5-0.29-0.97-0.29-1.39c0-0.73,0.14-1.53,0.42-2.4c0.28-0.87,0.7-1.95,1.26-3.24l1.3-3.32
		l-0.8-0.04c-0.28,0-0.49-0.11-0.63-0.34l-0.17-0.55c0-0.34,0.1-0.7,0.29-1.09c0.22-0.34,0.6-0.55,1.14-0.63l1.77-0.13l2.1-3.36
		l2.02-3.03c0.39-0.56,0.73-0.97,1.01-1.22c0.25-0.17,0.62-0.25,1.09-0.25h0.88c0.56,0,0.9,0.02,1.03,0.06
		c0.13,0.04,0.27,0.23,0.44,0.57c0,0.14-0.21,0.57-0.63,1.3l-1.39,2.15l-1.35,2.19L256.24,131.83z"/>
	<path class="st1" d="M255.52,154.37v0.42c0,0.31,0.12,0.58,0.36,0.8c0.24,0.22,0.5,0.27,0.78,0.13c0.39-0.08,0.95-0.76,1.68-2.03
		c0.62-1.13,1.35-2.74,2.19-4.82c-1.41,0.87-2.56,1.81-3.44,2.79C256.22,152.65,255.69,153.55,255.52,154.37 M269.87,133.01
		l-4.25,11.02c0.84,0,1.85-0.46,3.03-1.39c1.18-0.92,2.41-2.24,3.7-3.95v1.77c-0.45,0.62-1.22,1.49-2.31,2.61
		c-0.98,0.98-1.77,1.69-2.36,2.11c-0.45,0.31-0.95,0.58-1.51,0.8l-1.64,0.55l-0.84,2.36c-0.59,1.57-1.51,3.39-2.78,5.46
		c-1.26,2.06-2.27,3.2-3.03,3.39c-0.08,0.03-0.34,0.09-0.78,0.19c-0.44,0.1-0.69,0.15-0.78,0.15c-0.67,0-1.28-0.18-1.81-0.55
		c-0.7-0.62-1.05-1.45-1.05-2.49c0-1.3,0.54-2.57,1.62-3.82c1.08-1.25,2.45-2.43,4.1-3.52l2.1-1.56l0.71-2.07
		c-0.48,0.48-1.01,0.92-1.6,1.35c-0.56,0.34-1.15,0.5-1.77,0.5l-1.01-0.17c-0.39-0.08-0.76-0.44-1.09-1.05
		c-0.28-0.65-0.42-1.25-0.42-1.81c0-0.84,0.13-1.62,0.39-2.34c0.26-0.72,0.68-1.69,1.26-2.93l2.04-4.36
		c0.42-0.9,1.02-1.34,1.81-1.34h1.56c0.42,0,0.65,0.14,0.67,0.42c0,0.23-0.1,0.52-0.29,0.88l-1.52,2.98l-1.63,3.2
		c-0.5,1.01-0.79,1.77-0.84,2.27l0.17,0.5c0.06,0.11,0.28,0.17,0.67,0.17c0.34,0,0.65-0.15,0.95-0.44c0.29-0.29,0.61-0.75,0.95-1.37
		l1.39-2.65l1.93-3.87l0.86-1.59c0.36-0.62,0.88-0.93,1.55-0.93h1.55c0.34,0,0.52,0.18,0.55,0.55l-0.08,0.55L269.87,133.01z"/>
	<path class="st1" d="M293.04,117.99l-3.11,5.68l-3.15,5.97l-4.33,9.17l-0.76,1.81c-0.17,0.56-0.28,1.12-0.34,1.68v0.25l0.17,0.5
		c0.08,0.17,0.35,0.27,0.8,0.29l0.76-0.13c0.34-0.08,1.14-0.76,2.4-2.02c0.59-0.59,1.09-1.11,1.49-1.58
		c0.41-0.46,0.74-0.88,0.99-1.24v1.84c-0.2,0.39-0.78,1.06-1.74,2.01c-0.62,0.64-0.95,0.98-0.98,1c-0.34,0.31-0.81,0.73-1.42,1.28
		c-0.61,0.54-1.2,0.96-1.78,1.25c-0.58,0.29-1.15,0.44-1.72,0.44l-1.1-0.17c-0.57-0.08-0.98-0.36-1.23-0.84l-0.38-1.22v-1.01
		c0-0.59,0.02-1.01,0.06-1.28c0.04-0.27,0.16-0.71,0.34-1.34c0.18-0.63,0.35-1.11,0.49-1.45c0.06-0.14,0.24-0.54,0.55-1.21
		l1.69-3.64l2.78-5.68c0.68-1.34,1.24-2.46,1.69-3.36c0.68-1.29,1.2-2.27,1.57-2.94l1.91-3.76c0.11-0.25,0.29-0.55,0.55-0.89
		c0.03-0.03,0.06-0.08,0.08-0.17l0.84-0.13h2.52c0.33,0,0.52,0.11,0.55,0.34L293.04,117.99z"/>
	<path class="st1" d="M294.18,125.35h0.42c0.64,0,1.05,0.21,1.22,0.63l0.21,1.05c0,0.62-0.18,1.23-0.55,1.85
		c-0.23,0.53-0.53,0.95-0.91,1.26c-0.38,0.31-0.79,0.46-1.24,0.46c-0.67,0-1.11-0.14-1.3-0.42c-0.2-0.28-0.32-0.65-0.38-1.1
		c0-0.42,0.09-0.88,0.27-1.38c0.18-0.49,0.51-0.98,0.99-1.46C293.34,125.76,293.76,125.47,294.18,125.35 M294.28,132.53l-3.25,6.57
		l-0.84,1.89c-0.17,0.42-0.25,0.86-0.25,1.3c0,0.2,0.08,0.44,0.25,0.74c0.17,0.29,0.38,0.44,0.63,0.44c0.06,0,0.22-0.03,0.5-0.08
		c0.59-0.17,1.46-0.83,2.61-1.98c1.15-1.15,1.95-2.06,2.4-2.73v1.76c-0.11,0.19-0.31,0.46-0.59,0.79c-0.28,0.33-0.65,0.74-1.1,1.21
		c-0.82,0.89-1.57,1.59-2.25,2.09c-0.57,0.56-1.13,0.98-1.7,1.26c-0.57,0.28-1.17,0.42-1.82,0.42h-0.72c-0.23,0-0.49-0.13-0.78-0.4
		c-0.3-0.27-0.53-0.54-0.7-0.82l-0.25-0.93v-1.01c0-0.5,0.01-0.88,0.04-1.14c0.03-0.25,0.13-0.65,0.29-1.18
		c0.08-0.28,0.22-0.67,0.42-1.18c0.19-0.5,0.38-0.94,0.54-1.3l2.66-5.63c0.08-0.2,0.18-0.38,0.29-0.55
		c0.03-0.06,0.07-0.13,0.13-0.21l0.79-0.17h2.34c0.33,0,0.52,0.11,0.54,0.34L294.28,132.53z"/>
	<path class="st1" d="M298.2,141.71l-1.24,3.58c-0.37,1.29-0.55,2.26-0.55,2.9c0,0.28,0.05,0.56,0.15,0.84
		c0.1,0.28,0.39,0.42,0.87,0.42c0.28-0.06,0.54-0.29,0.79-0.7c0.24-0.41,0.48-0.9,0.72-1.49s0.52-1.48,0.83-2.67
		c0.31-1.19,0.47-2.18,0.47-2.97c0-0.7-0.1-1.29-0.29-1.77l-0.71-0.8c-0.08,0.25-0.17,0.49-0.26,0.72c-0.08,0.22-0.2,0.49-0.34,0.8
		L298.2,141.71z M308.06,120.9c0.08,0.17,0.03,0.44-0.17,0.8l-3.37,6.35l-3.2,5.72l0.65,2.98c0.15,0.63,0.26,1.24,0.35,1.85
		c0.09,0.61,0.13,1.13,0.13,1.55l0.67,0.3h0.54c0.25,0,0.44-0.06,0.58-0.17c0.41-0.17,0.72-0.35,0.91-0.55l0.83-0.97v1.51
		c-0.2,0.39-0.43,0.72-0.7,0.99c-0.27,0.27-0.55,0.47-0.86,0.61l-0.63,0.13c-0.53,0-0.98-0.1-1.35-0.29c0,1.85-0.28,3.66-0.84,5.43
		c-0.5,1.85-1.42,3.27-2.73,4.25c-0.7,0.48-1.42,0.71-2.14,0.71l-1.22-0.21c-0.65-0.14-1.15-0.67-1.51-1.58
		c-0.36-0.91-0.55-1.79-0.55-2.63c0-0.62,0.04-1.22,0.13-1.81c0.08-0.59,0.24-1.21,0.46-1.85c0.31-1.18,0.9-2.76,1.77-4.76
		l1.18-3.11l-0.38-0.84l-0.21-1.18c0.08-0.59,0.33-1.07,0.73-1.45c0.4-0.38,0.88-0.61,1.44-0.69l2.82-5.51
		c0.17-0.36,0.37-0.77,0.59-1.22c0.22-0.45,0.43-0.8,0.63-1.05l0.8-1.35l1.05-1.89c0.14-0.14,0.64-0.28,1.52-0.42l1.14-0.13
		C307.58,120.41,307.89,120.56,308.06,120.9"/>
	<path class="st1" d="M309.02,137.46l-0.12,0.59c0,0.37,0.14,0.59,0.42,0.68h0.59c0.22,0,0.52-0.12,0.88-0.36
		c0.36-0.24,0.71-0.65,1.03-1.25c0.32-0.6,0.55-1.29,0.69-2.07c0-0.5-0.08-0.83-0.25-0.98c-0.17-0.15-0.41-0.23-0.72-0.23
		c-0.17,0-0.41,0.09-0.71,0.25c-0.31,0.17-0.67,0.66-1.09,1.48c-0.2,0.42-0.34,0.76-0.44,1
		C309.2,136.83,309.11,137.12,309.02,137.46 M308.23,140.83c-0.23,0.31-0.36,0.69-0.42,1.16c0,0.5,0.25,0.96,0.74,1.39
		c0.49,0.43,1.13,0.64,1.91,0.64c1.07,0,2.19-0.48,3.37-1.45c1.18-0.97,2.4-2.25,3.66-3.85v1.75c-1.71,2-3.11,3.45-4.21,4.37
		c-1.09,0.91-2.34,1.37-3.74,1.37h-1.26c-0.5-0.06-1.1-0.29-1.79-0.72c-0.69-0.42-1.19-1.04-1.49-1.86
		c-0.36-0.81-0.55-1.66-0.55-2.53c0-0.73,0.03-1.25,0.08-1.56c0.06-0.31,0.18-0.72,0.38-1.22c0.33-1.01,0.83-2.08,1.47-3.21
		c0.64-1.12,1.36-2.01,2.14-2.66c0.78-0.65,1.62-0.97,2.52-0.97c0.42,0,0.73,0.01,0.92,0.04c0.2,0.03,0.55,0.13,1.07,0.32
		c0.52,0.18,1,0.56,1.45,1.12c0.45,0.56,0.67,1.24,0.67,2.03c0,0.51-0.13,1.17-0.4,1.99c-0.27,0.82-0.75,1.63-1.45,2.45
		c-0.65,0.82-1.21,1.32-1.68,1.52l-1.01,0.34h-0.71C309.18,141.3,308.62,141.14,308.23,140.83"/>
	<path class="st1" d="M320.51,140.96l0.63-0.13c0.22,0,0.44,0.06,0.65,0.19c0.21,0.12,0.36,0.31,0.44,0.56
		c0.08,0.25,0.12,0.61,0.12,1.08c0,0.47-0.15,1.04-0.44,1.69c-0.29,0.65-0.67,1.13-1.14,1.42c-0.46,0.29-0.86,0.44-1.2,0.44
		c-0.22,0-0.48-0.06-0.78-0.19c-0.29-0.12-0.53-0.52-0.69-1.19c-0.08-0.67,0.1-1.41,0.55-2.23
		C319.1,141.79,319.72,141.24,320.51,140.96"/>
	<path class="st1" d="M329.34,140.96l0.63-0.13c0.22,0,0.44,0.06,0.65,0.19c0.21,0.12,0.36,0.31,0.44,0.56
		c0.08,0.25,0.12,0.61,0.12,1.08c0,0.47-0.15,1.04-0.44,1.69c-0.29,0.65-0.67,1.13-1.14,1.42c-0.46,0.29-0.86,0.44-1.2,0.44
		c-0.22,0-0.48-0.06-0.78-0.19c-0.29-0.12-0.53-0.52-0.69-1.19c-0.08-0.67,0.1-1.41,0.55-2.23
		C327.94,141.79,328.55,141.24,329.34,140.96"/>
	<path class="st1" d="M338.17,140.96l0.63-0.13c0.22,0,0.44,0.06,0.65,0.19c0.21,0.12,0.36,0.31,0.44,0.56
		c0.08,0.25,0.12,0.61,0.12,1.08c0,0.47-0.15,1.04-0.44,1.69c-0.29,0.65-0.67,1.13-1.14,1.42c-0.46,0.29-0.86,0.44-1.2,0.44
		c-0.22,0-0.48-0.06-0.78-0.19c-0.29-0.12-0.53-0.52-0.69-1.19c-0.08-0.67,0.1-1.41,0.55-2.23
		C336.77,141.79,337.39,141.24,338.17,140.96"/>
	<g>
		<path class="st2" d="M364.18,75.87c0,2.35-1.84,4.19-4.24,4.19c-2.37,0-4.27-1.84-4.27-4.19c0-2.3,1.89-4.14,4.27-4.14
			C362.33,71.73,364.18,73.57,364.18,75.87z M356.73,75.87c0,1.84,1.36,3.31,3.23,3.31c1.82,0,3.16-1.46,3.16-3.28
			c0-1.84-1.34-3.33-3.18-3.33C358.09,72.56,356.73,74.05,356.73,75.87z M359.28,78.04h-0.96V73.9c0.38-0.08,0.91-0.13,1.59-0.13
			c0.78,0,1.14,0.13,1.44,0.3c0.23,0.18,0.4,0.51,0.4,0.91c0,0.45-0.35,0.81-0.86,0.96V76c0.4,0.15,0.63,0.45,0.76,1.01
			c0.13,0.63,0.2,0.88,0.3,1.04h-1.04c-0.13-0.15-0.2-0.53-0.33-1.01c-0.08-0.45-0.33-0.66-0.86-0.66h-0.45V78.04z M359.3,75.69
			h0.45c0.53,0,0.96-0.18,0.96-0.61c0-0.38-0.28-0.63-0.88-0.63c-0.25,0-0.43,0.03-0.53,0.05V75.69z"/>
	</g>
</g>
</svg>
