<svg width="323" height="159" viewBox="0 0 323 159" fill="none" xmlns="http://www.w3.org/2000/svg">
<g clip-path="url(#clip0_16210_1064)">
<path d="M61.42 76.93L64.97 70.19L65.32 70.54C66.84 71.98 68.45 72.71 70.15 72.71C70.68 72.71 71.15 72.61 71.58 72.41C72.11 72.15 72.4 71.78 72.46 71.3C72.53 70.82 72.37 70.48 71.98 70.29C71.79 70.18 71.41 70.07 70.84 69.97L69.22 69.65C67.76 69.37 66.58 68.82 65.69 67.99C64.68 67.05 64.18 65.85 64.18 64.37C64.18 64.08 64.21 63.73 64.27 63.33C64.68 60.62 66.03 58.44 68.33 56.78C70.44 55.26 72.81 54.5 75.44 54.5C78.07 54.5 80.37 55.2 82.33 56.6L79.17 62.69C77.68 61.49 76.17 60.89 74.65 60.89C73.48 60.89 72.83 61.31 72.7 62.16C72.64 62.53 72.8 62.82 73.16 63.02C73.31 63.1 73.64 63.2 74.17 63.34L75.99 63.78C79.37 64.61 81.06 66.47 81.06 69.36C81.06 69.79 81.03 70.21 80.97 70.61C80.57 73.29 79.22 75.42 76.91 77.03C74.86 78.43 72.51 79.13 69.85 79.13C66.72 79.1 63.92 78.38 61.42 76.93ZM81.6 78.73L85.18 54.88H100.43L99.49 61.38H92.53L92.16 63.66H98.52L97.58 69.87H91.24L90.91 72.2H98.08L97.09 78.73H81.6ZM99.01 76.93L102.56 70.19L102.91 70.54C104.43 71.98 106.04 72.71 107.74 72.71C108.27 72.71 108.74 72.61 109.17 72.41C109.7 72.15 109.99 71.78 110.05 71.3C110.12 70.82 109.96 70.48 109.57 70.29C109.38 70.18 109 70.07 108.43 69.97L106.81 69.65C105.35 69.37 104.17 68.82 103.28 67.99C102.27 67.05 101.77 65.85 101.77 64.37C101.77 64.08 101.8 63.73 101.86 63.33C102.27 60.62 103.63 58.44 105.92 56.78C108.03 55.26 110.39 54.5 113.03 54.5C115.67 54.5 117.96 55.2 119.92 56.6L116.76 62.69C115.27 61.49 113.76 60.89 112.24 60.89C111.07 60.89 110.42 61.31 110.29 62.16C110.23 62.53 110.38 62.82 110.75 63.02C110.9 63.1 111.23 63.2 111.76 63.34L113.58 63.78C116.96 64.61 118.65 66.47 118.65 69.36C118.65 69.79 118.62 70.21 118.56 70.61C118.16 73.29 116.81 75.42 114.5 77.03C112.45 78.43 110.1 79.13 107.44 79.13C104.31 79.1 101.51 78.38 99.01 76.93ZM131.31 78.73L134.89 54.88H142.92L141.21 65.21H141.38C141.54 64.72 142.06 63.82 142.92 62.53L148.05 54.87H157.04L148.21 66.48L154.22 78.73H144.65L141.82 71.51C141.67 71.2 141.47 70.75 141.2 70.15C140.98 69.64 140.86 69.17 140.85 68.72H140.67L139.33 78.73H131.31ZM155.44 78.73L159.02 54.88H167.27L163.69 78.73H155.44ZM166.01 78.73L173.25 54.88H181.74L183.01 67.4H183.21C183.37 66.8 183.72 65.74 184.27 64.24L188.22 54.88H196.62L196.78 78.73H188.79L189.65 65.65H189.5C189.1 66.82 188.81 67.61 188.62 68.03L183.71 78.74H178.9L177.47 68.63C177.34 67.65 177.31 66.65 177.38 65.65H177.12C176.94 66.56 176.73 67.52 176.48 68.53L173.98 78.73H166.01ZM200.42 54.88H209.77L211.35 61.11H211.59C211.78 60.68 212.14 59.93 212.69 58.85L214.91 54.88H224.19L214.38 68.44L212.84 78.73H204.76L206.3 68.44L200.42 54.88ZM229.44 75.75L228.34 78.73H219.61L231.09 54.88H240.19L244.71 78.73H235.98L235.67 75.75H229.44ZM231.77 70.08H235.08L234.75 65.88C234.71 65.37 234.68 64.35 234.68 62.81H234.38L231.77 70.08ZM265.58 75.75L264.48 78.73H255.75L267.22 54.88H276.33L280.85 78.73H272.12L271.81 75.75H265.58ZM267.91 70.08H271.22L270.89 65.88C270.85 65.37 270.83 64.35 270.83 62.81H270.52L267.91 70.08ZM287.53 71.16C288.57 71.16 289.46 71.44 290.21 72.01C291.03 72.66 291.44 73.51 291.44 74.57C291.44 75.91 290.89 77.01 289.79 77.89C288.78 78.69 287.62 79.09 286.32 79.09C285.27 79.09 284.37 78.81 283.63 78.26C282.8 77.65 282.38 76.81 282.38 75.75C282.38 74.43 282.94 73.31 284.05 72.4C285.07 71.58 286.23 71.16 287.53 71.16ZM293.03 76.93L296.58 70.19L296.93 70.54C298.45 71.98 300.06 72.71 301.76 72.71C302.29 72.71 302.76 72.61 303.19 72.41C303.72 72.15 304.01 71.78 304.07 71.3C304.14 70.82 303.98 70.48 303.59 70.29C303.4 70.18 303.02 70.07 302.45 69.97L300.83 69.65C299.37 69.37 298.19 68.82 297.3 67.99C296.29 67.05 295.79 65.85 295.79 64.37C295.79 64.08 295.82 63.73 295.88 63.33C296.29 60.62 297.64 58.44 299.94 56.78C302.05 55.26 304.42 54.5 307.05 54.5C309.68 54.5 311.98 55.2 313.94 56.6L310.78 62.69C309.29 61.49 307.78 60.89 306.26 60.89C305.09 60.89 304.44 61.31 304.31 62.16C304.25 62.53 304.41 62.82 304.77 63.02C304.92 63.1 305.25 63.2 305.78 63.34L307.6 63.78C310.98 64.61 312.67 66.47 312.67 69.36C312.67 69.79 312.64 70.21 312.58 70.61C312.19 73.29 310.83 75.42 308.52 77.03C306.47 78.43 304.12 79.13 301.46 79.13C298.34 79.1 295.54 78.38 293.03 76.93ZM318.87 71.16C319.91 71.16 320.8 71.44 321.55 72.01C322.37 72.66 322.78 73.51 322.78 74.57C322.78 75.91 322.23 77.01 321.14 77.89C320.13 78.69 318.98 79.09 317.67 79.09C316.62 79.09 315.72 78.81 314.97 78.26C314.14 77.65 313.72 76.81 313.72 75.75C313.72 74.43 314.27 73.31 315.39 72.4C316.41 71.58 317.57 71.16 318.87 71.16ZM301.36 79.74C302.2 79.74 302.93 79.97 303.53 80.43C304.19 80.95 304.53 81.65 304.53 82.51C304.53 83.6 304.09 84.5 303.2 85.21C302.38 85.86 301.45 86.18 300.39 86.18C299.54 86.18 298.81 85.96 298.2 85.51C297.53 85.01 297.19 84.33 297.19 83.47C297.19 82.4 297.64 81.49 298.55 80.76C299.36 80.07 300.31 79.74 301.36 79.74Z" fill="#0D519B"/>
<path d="M163.46 46.09C163.46 45.5 163.94 45.03 164.52 45.03C165.1 45.03 165.58 45.5 165.58 46.09C165.58 46.68 165.1 47.15 164.52 47.15C163.94 47.16 163.46 46.68 163.46 46.09ZM162.9 44.04L155.56 39.01L161.96 45.19L155.22 44.1L161.66 46.56L158.8 48.05L162.49 47.23L158.76 51.82L163.33 48.51L162.92 51.6L164.3 48.38L166.24 51.83L165.57 48.13L170.12 52.53L166.9 47.28L169.1 48.01L167.54 46.49L171.88 45.73L167.54 45.19L177.17 39.82L166.71 44.14L169.89 37.66L165.44 43.76L164.54 34.85L163.67 43.17L161.86 40.42L162.9 44.04Z" fill="#0D519B"/>
<path d="M8.42006 88.58C-4.87994 45.07 -2.11994 5.66 14.5901 0.550001C23.2001 -2.08 33.8301 4.9 43.9301 18.22C40.9101 16.02 37.9501 15.12 35.2101 15.96C24.1501 19.34 25.4501 48.8 34.5401 78.53C43.6301 108.26 59.0401 133.4 70.0901 130.02C74.0001 128.83 76.3001 124.45 77.3301 118.19C77.8401 139.52 72.8301 155.01 62.7701 158.09C46.0601 163.21 21.7301 132.08 8.42006 88.58Z" fill="#0D519B"/>
<path d="M36.1201 78.05C26.7501 47.42 26.5601 20.33 35.7001 17.54C41.9401 15.63 50.9201 25.56 58.9701 41.81C56.0301 38.44 53.1901 36.8 50.8801 37.5C45.0401 39.28 44.7901 55.39 50.3201 73.48C55.8501 91.57 65.0701 104.78 70.9101 102.99C73.2701 102.27 74.7201 99.21 75.2401 94.62C77.8001 112.94 75.9401 126.51 69.6201 128.44C60.4801 131.25 45.4801 108.68 36.1201 78.05Z" fill="#1DA9E0"/>
<path d="M107.95 116.19L106.71 119.77C106.34 121.06 106.16 122.03 106.16 122.67C106.16 122.95 106.21 123.23 106.31 123.51C106.41 123.79 106.7 123.93 107.18 123.93C107.46 123.87 107.72 123.64 107.97 123.23C108.21 122.82 108.45 122.33 108.69 121.74C108.93 121.15 109.21 120.26 109.52 119.07C109.83 117.88 109.99 116.89 109.99 116.1C109.99 115.4 109.89 114.81 109.7 114.33L108.99 113.53C108.9 113.78 108.82 114.02 108.73 114.25C108.64 114.47 108.53 114.74 108.39 115.05L107.95 116.19ZM117.81 95.38C117.89 95.55 117.84 95.82 117.64 96.18L114.28 102.53L111.08 108.25L111.74 111.23C111.89 111.86 112 112.47 112.09 113.08C112.18 113.69 112.22 114.21 112.22 114.63L112.89 114.93H113.43C113.68 114.93 113.87 114.87 114.01 114.76C114.42 114.59 114.73 114.41 114.92 114.21L115.75 113.24V114.75C115.55 115.14 115.32 115.47 115.06 115.74C114.79 116.01 114.51 116.21 114.2 116.35L113.57 116.48C113.04 116.48 112.59 116.38 112.22 116.19C112.22 118.04 111.94 119.85 111.38 121.62C110.88 123.47 109.96 124.89 108.65 125.87C107.95 126.35 107.23 126.58 106.51 126.58L105.29 126.37C104.64 126.23 104.14 125.7 103.78 124.79C103.42 123.88 103.23 123 103.23 122.16C103.23 121.54 103.27 120.94 103.36 120.35C103.45 119.76 103.6 119.14 103.82 118.5C104.13 117.32 104.72 115.74 105.59 113.74L106.77 110.63L106.39 109.79L106.18 108.61C106.26 108.02 106.51 107.54 106.91 107.16C107.31 106.78 107.79 106.55 108.35 106.47L111.17 100.96C111.34 100.6 111.54 100.19 111.76 99.74C111.99 99.29 112.2 98.94 112.39 98.69L113.19 97.34L114.24 95.45C114.38 95.31 114.89 95.17 115.76 95.03L116.9 94.9C117.33 94.89 117.64 95.04 117.81 95.38Z" fill="#1DA9E0"/>
<path d="M122.6 108.58L121.84 108.5C121.56 108.5 121.14 108.64 120.58 108.92C119.96 109.17 119.34 109.94 118.71 111.23C118.08 112.52 117.69 113.54 117.55 114.3L117.38 116.03C117.38 116.48 117.42 116.81 117.51 117.04C117.59 117.27 117.76 117.47 118.01 117.65C118.26 117.83 118.59 117.95 118.98 118.01L119.78 117.84C120.09 117.73 120.42 117.49 120.79 117.13C121.15 116.77 121.52 116.26 121.88 115.62L122.09 115.12C121.89 114.78 121.72 114.41 121.58 113.98L121.41 112.76V112.26L121.54 111.54C121.54 111.34 121.6 111.15 121.71 110.95L122.21 110.28C122.43 110.06 122.83 109.9 123.39 109.82C123.39 109.46 123.33 109.19 123.2 109.02C123.09 108.83 122.89 108.7 122.6 108.58ZM125.04 115.61L125.71 115.78C126.24 115.78 126.86 115.49 127.56 114.9C128.26 114.31 128.86 113.6 129.37 112.76L129.79 114.27C129.45 114.97 128.87 115.65 128.02 116.29C127.18 116.94 126.36 117.26 125.58 117.26C125.19 117.26 124.81 117.16 124.44 116.97C123.6 118.31 122.71 119.28 121.79 119.87C121.37 120.15 120.91 120.36 120.42 120.5C119.93 120.64 119.35 120.71 118.67 120.71C117.99 120.71 117.31 120.5 116.52 120.08C115.73 119.66 115.18 119.2 114.86 118.71C114.54 118.22 114.31 117.74 114.17 117.26L114.04 115.75C114.04 114.26 114.28 113.03 114.75 112.05C115.34 110.56 116.12 109.28 117.1 108.2C118.08 107.12 119.04 106.45 119.96 106.2L121.94 105.91C122.61 105.91 123.24 106 123.81 106.18C124.38 106.36 124.88 106.66 125.3 107.08C125.72 107.5 126.01 107.96 126.18 108.47C126.26 108.72 126.33 108.97 126.39 109.21C126.45 109.45 126.47 109.72 126.47 110.03V110.75C126.47 111.09 126.4 111.51 126.25 112.01C126.22 112.24 126.16 112.52 126.07 112.85C125.98 113.19 125.88 113.52 125.76 113.86C125.59 114.54 125.34 115.13 125.04 115.61Z" fill="#1DA9E0"/>
<path d="M135.18 117.92C135.96 118.09 136.95 117.55 138.15 116.3C139.34 115.05 140.23 114.01 140.82 113.17V114.93C139.81 116.27 138.53 117.57 136.99 118.82C135.45 120.08 134.1 120.7 132.95 120.7C132.61 120.7 132.21 120.55 131.73 120.24C131.31 119.91 131.01 119.54 130.83 119.14C130.65 118.74 130.56 118.35 130.56 117.99C130.56 117.21 130.81 116.34 131.32 115.36L133 112.5C133.65 111.52 133.98 110.92 134.01 110.69C134.04 110.49 133.97 110.4 133.8 110.4L132.66 110.57C132.32 110.57 131.94 110.51 131.52 110.4L130.34 112.75C129.84 113.82 129.05 114.88 127.99 115.95L127.7 114.48C128.01 114.23 128.46 113.52 129.07 112.36C129.67 111.2 130.06 110.33 130.23 109.77C129.87 109.49 129.68 108.98 129.68 108.26C129.68 107.84 129.74 107.43 129.87 107.04C129.99 106.65 130.24 106.19 130.61 105.65C130.97 105.12 131.38 104.73 131.83 104.47C132.05 104.36 132.26 104.27 132.46 104.22C132.65 104.16 132.89 104.14 133.17 104.14H133.72C134.03 104.37 134.18 104.75 134.18 105.27L134.05 105.79L133.92 106.44C133.92 106.61 134 106.79 134.17 106.96C134.34 107.07 134.58 107.07 134.88 106.96L135.47 106.54L135.93 106.37L139.38 106.66C139.91 106.66 140.18 106.91 140.18 107.42C140.18 107.67 139.77 108.39 138.96 109.57L136.52 113.1L135.13 115.37L134.54 116.59L134.41 117.14C134.41 117.36 134.48 117.55 134.62 117.69L135.18 117.92Z" fill="#1DA9E0"/>
<path d="M153.43 121.41C152.75 122.33 152.11 123.5 151.51 124.92C150.91 126.34 150.61 127.45 150.61 128.27L150.74 128.86C150.82 129.11 150.98 129.24 151.2 129.24L151.66 129.11L152.25 128.39C152.47 128.11 152.75 127.44 153.07 126.39C153.39 125.34 153.55 124.31 153.55 123.3V122.54L153.43 121.41ZM151.2 117.04C151.71 116.48 152.52 115.25 153.64 113.34C154.76 111.43 155.32 110.2 155.32 109.64C155.32 109.36 155.25 109.15 155.11 109.01C155.03 108.84 154.87 108.72 154.65 108.63C154.37 108.55 154.05 108.57 153.7 108.71C153.35 108.85 152.87 109.21 152.25 109.8C151.6 110.33 150.88 111.32 150.06 112.77C149.25 114.21 148.84 115.43 148.84 116.41C148.84 116.8 148.91 117.13 149.05 117.38C149.19 117.55 149.44 117.66 149.81 117.72C150.29 117.72 150.76 117.49 151.2 117.04ZM156.72 107.57C156.89 107.57 157.06 107.44 157.22 107.19C157.39 106.94 157.58 106.8 157.81 106.77H159.91C160.3 106.77 160.57 106.8 160.71 106.85C160.85 106.91 160.96 107.06 161.05 107.31C161.11 107.48 160.97 107.89 160.63 108.53L159.41 110.8L154.99 118.54L156 118.71C157.26 118.71 158.5 118.17 159.7 117.09C160.91 116.01 162.15 114.7 163.44 113.16V114.93C161.85 116.92 160.56 118.32 159.57 119.14C158.58 119.96 157.58 120.49 156.58 120.74L155.24 120.91L155.32 121.41V122.58C155.32 123.39 155.28 124.16 155.19 124.87C155.11 125.58 154.95 126.36 154.73 127.2C154.39 128.71 153.83 129.78 153.03 130.4C152.23 131.02 151.49 131.32 150.82 131.32L149.68 131.07C149.06 130.96 148.62 130.47 148.33 129.6C148.11 128.76 147.99 128.09 147.99 127.58C147.99 126.74 148.12 125.91 148.37 125.1L149.84 121.1L150.22 120.17L148.71 120.38C147.95 120.38 147.32 120.17 146.82 119.75C146.43 119.36 146.13 118.87 145.94 118.28C145.74 117.69 145.65 117.09 145.65 116.47C145.65 116.36 145.65 116.13 145.69 115.78C145.73 115.43 145.79 114.87 145.92 114.12C146.05 113.36 146.58 112.15 147.52 110.48C148.46 108.81 149.74 107.68 151.37 107.09C152.13 106.78 152.84 106.63 153.52 106.63C154.14 106.63 154.68 106.73 155.16 106.92L156.72 107.57Z" fill="#1DA9E0"/>
<path d="M168.74 106.94L167.27 109.63L166.13 111.86L164.45 115.39L164.28 116.15C164.28 116.49 164.39 116.68 164.6 116.74C164.81 116.8 165 116.82 165.17 116.82C165.42 116.82 165.62 116.76 165.76 116.65L166.22 116.23L166.51 115.85L167.39 114.33L170.59 107.94C170.87 107.38 171.13 107.02 171.37 106.87C171.61 106.72 171.98 106.64 172.48 106.64H173.57C174.22 106.64 174.65 106.81 174.87 107.14C174.95 107.22 174.91 107.48 174.74 107.9L173.44 110.34L173.06 110.97C172.69 111.62 172.33 112.34 171.97 113.16C171.86 113.41 171.65 113.9 171.34 114.63C170.89 115.86 170.71 116.79 170.79 117.41C170.87 117.78 171.15 117.96 171.63 117.96L172.47 117.79C172.83 117.71 173.6 117.08 174.76 115.92C175.92 114.76 176.74 113.84 177.22 113.17V114.94C176.13 116.31 174.89 117.63 173.5 118.89C172.11 120.15 170.93 120.78 169.95 120.78H169.57L168.56 120.44C168.03 120.27 167.5 119.63 166.96 118.5C166.09 119.17 165.29 119.68 164.56 120.02C163.8 120.3 163.21 120.44 162.79 120.44L161.82 120.27C161.37 120.19 161.01 119.88 160.75 119.36C160.48 118.84 160.35 118.33 160.35 117.83C160.35 117.24 160.48 116.53 160.73 115.68C160.87 115.26 161.02 114.84 161.17 114.42C161.32 114 161.5 113.58 161.7 113.16L162.92 110.51L164.27 107.78L164.82 106.77C165.02 106.46 165.27 106.28 165.58 106.22H168.23C168.65 106.22 168.86 106.33 168.86 106.56L168.74 106.94Z" fill="#1DA9E0"/>
<path d="M180.86 110.38L180.02 111.97L179.22 114.32C178.97 115.24 178.84 115.94 178.84 116.41C178.84 117.14 179.09 117.57 179.6 117.71C180.25 117.82 181.03 117.32 181.96 116.2C182.83 115.03 183.56 113.74 184.15 112.35L185.08 109.96L185.16 109.37C185.16 109.23 185.07 109.01 184.89 108.72C184.71 108.43 184.34 108.28 183.78 108.28C183.58 108.28 183.32 108.34 182.98 108.45C182.64 108.56 182.28 108.78 181.89 109.12C181.59 109.38 181.25 109.79 180.86 110.38ZM186.75 106.61C187.17 106 187.49 105.68 187.72 105.65L188.86 105.56L190.8 105.69C190.97 105.69 191.07 105.8 191.09 106.03L190.96 106.49L187.68 112.63L186.5 114.94C186.36 115.28 186.25 115.56 186.18 115.8C186.11 116.04 186.06 116.3 186.03 116.58C186.03 116.92 186.17 117.17 186.45 117.34L187.21 117.51C187.71 117.51 188.22 117.26 188.72 116.75C189.2 116.33 189.46 116.09 189.52 116.03C189.94 115.64 190.31 115.25 190.63 114.87C190.95 114.49 191.2 114.21 191.37 114.03C191.54 113.85 191.75 113.56 192 113.17V114.93C190.91 116.35 189.62 117.67 188.15 118.88C186.68 120.09 185.41 120.7 184.34 120.7C183.33 120.7 182.66 120.03 182.32 118.68C181.82 119.34 181.26 119.84 180.66 120.18C180.06 120.52 179.42 120.69 178.75 120.69C178.27 120.69 177.78 120.49 177.26 120.08C176.74 119.68 176.32 119.1 176 118.36C175.68 117.62 175.52 116.81 175.52 115.95C175.52 114.94 175.69 113.92 176.03 112.87C176.37 111.82 176.91 110.68 177.65 109.43C178.39 108.18 179.28 107.21 180.32 106.52C181.36 105.88 182.39 105.55 183.43 105.55C183.93 105.55 184.28 105.57 184.48 105.61C184.68 105.65 184.97 105.74 185.36 105.88C186.03 106.06 186.49 106.3 186.75 106.61Z" fill="#1DA9E0"/>
<path d="M205.55 92.47L202.44 98.15L199.29 104.12L194.96 113.29L194.2 115.1C194.03 115.66 193.92 116.22 193.86 116.78V117.03L194.03 117.53C194.11 117.7 194.38 117.8 194.83 117.82L195.59 117.69C195.93 117.61 196.73 116.93 197.99 115.67C198.58 115.08 199.08 114.56 199.48 114.09C199.89 113.63 200.22 113.21 200.47 112.85V114.69C200.27 115.08 199.69 115.75 198.73 116.7C198.11 117.34 197.78 117.68 197.75 117.7C197.41 118.01 196.94 118.43 196.33 118.98C195.72 119.52 195.13 119.94 194.55 120.23C193.97 120.52 193.4 120.67 192.83 120.67L191.73 120.5C191.16 120.42 190.75 120.14 190.5 119.66L190.12 118.44V117.43C190.12 116.84 190.14 116.42 190.18 116.15C190.22 115.88 190.34 115.44 190.52 114.81C190.7 114.18 190.87 113.7 191.01 113.36C191.07 113.22 191.25 112.82 191.56 112.15L193.25 108.51L196.03 102.83C196.71 101.49 197.27 100.37 197.72 99.47C198.4 98.18 198.92 97.2 199.29 96.53L201.2 92.77C201.31 92.52 201.49 92.22 201.75 91.88C201.78 91.85 201.81 91.8 201.83 91.71L202.67 91.58H205.19C205.52 91.58 205.71 91.69 205.74 91.92L205.55 92.47Z" fill="#1DA9E0"/>
<path d="M206.68 99.83H207.1C207.74 99.83 208.15 100.04 208.32 100.46L208.53 101.51C208.53 102.13 208.35 102.74 207.98 103.36C207.75 103.89 207.45 104.31 207.07 104.62C206.69 104.93 206.28 105.08 205.83 105.08C205.16 105.08 204.72 104.94 204.53 104.66C204.33 104.38 204.21 104.01 204.15 103.56C204.15 103.14 204.24 102.68 204.42 102.18C204.6 101.69 204.93 101.2 205.41 100.72C205.84 100.24 206.26 99.95 206.68 99.83ZM206.78 107.01L203.53 113.58L202.69 115.48C202.52 115.9 202.44 116.34 202.44 116.78C202.44 116.98 202.52 117.22 202.69 117.52C202.86 117.81 203.07 117.96 203.32 117.96C203.38 117.96 203.54 117.93 203.82 117.88C204.41 117.71 205.28 117.05 206.43 115.9C207.58 114.75 208.38 113.84 208.83 113.17V114.93C208.72 115.12 208.52 115.39 208.24 115.72C207.96 116.05 207.59 116.46 207.14 116.93C206.32 117.82 205.57 118.52 204.89 119.02C204.32 119.58 203.76 120 203.19 120.28C202.62 120.56 202.02 120.7 201.37 120.7H200.65C200.42 120.7 200.16 120.57 199.87 120.3C199.57 120.03 199.34 119.76 199.17 119.48L198.92 118.55V117.54C198.92 117.04 198.92 116.66 198.96 116.4C198.99 116.15 199.09 115.75 199.25 115.22C199.33 114.94 199.47 114.55 199.67 114.04C199.86 113.54 200.05 113.1 200.21 112.74L202.87 107.11C202.95 106.91 203.05 106.73 203.16 106.56C203.19 106.5 203.23 106.43 203.29 106.35L204.08 106.18H206.42C206.75 106.18 206.94 106.29 206.96 106.52L206.78 107.01Z" fill="#1DA9E0"/>
<path d="M215.43 106.31L216.61 106.48C216.92 106.56 217.16 106.69 217.32 106.86C217.4 107 217.47 107.2 217.53 107.45C217.53 107.84 217.51 108.11 217.47 108.25C217.43 108.39 217.24 108.54 216.9 108.71L215.68 108.92L213.75 108.96L212.78 110.85L211.31 114.17C210.86 115.35 210.64 116.17 210.64 116.65V116.9L210.85 117.45C210.93 117.68 211.26 117.79 211.82 117.79C212.1 117.79 212.42 117.73 212.79 117.6C213.15 117.47 213.76 116.96 214.6 116.07C215.08 115.59 215.52 115.12 215.92 114.66C216.33 114.2 216.74 113.7 217.16 113.17V114.94L215.77 116.66L213.96 118.43C213.23 119.08 212.42 119.59 211.52 119.99C211.32 120.07 210.97 120.19 210.47 120.33C209.97 120.47 209.47 120.54 209 120.54C208.58 120.51 208.2 120.4 207.86 120.2C207.52 120 207.23 119.68 206.98 119.23C206.78 118.73 206.69 118.26 206.69 117.84C206.69 117.11 206.83 116.31 207.11 115.44C207.39 114.57 207.81 113.49 208.37 112.2L209.67 108.88L208.87 108.84C208.59 108.84 208.38 108.73 208.24 108.5L208.07 107.95C208.07 107.61 208.17 107.25 208.36 106.86C208.58 106.52 208.96 106.31 209.5 106.23L211.27 106.1L213.37 102.74L215.39 99.71C215.78 99.15 216.12 98.74 216.4 98.49C216.65 98.32 217.02 98.24 217.49 98.24H218.37C218.93 98.24 219.27 98.26 219.4 98.3C219.53 98.34 219.67 98.53 219.84 98.87C219.84 99.01 219.63 99.44 219.21 100.17L217.82 102.32L216.47 104.51L215.43 106.31Z" fill="#1DA9E0"/>
<path d="M214.71 128.85V129.27C214.71 129.58 214.83 129.85 215.07 130.07C215.31 130.29 215.57 130.34 215.85 130.2C216.24 130.12 216.8 129.44 217.53 128.17C218.15 127.04 218.88 125.43 219.72 123.35C218.31 124.22 217.16 125.16 216.28 126.14C215.41 127.13 214.88 128.03 214.71 128.85ZM229.06 107.49L224.81 118.51C225.65 118.51 226.66 118.05 227.84 117.12C229.02 116.2 230.25 114.88 231.54 113.17V114.94C231.09 115.56 230.32 116.43 229.23 117.55C228.25 118.53 227.46 119.24 226.87 119.66C226.42 119.97 225.92 120.24 225.36 120.46L223.72 121.01L222.88 123.37C222.29 124.94 221.37 126.76 220.1 128.83C218.84 130.89 217.83 132.03 217.07 132.22C216.99 132.25 216.73 132.31 216.29 132.41C215.85 132.51 215.6 132.56 215.51 132.56C214.84 132.56 214.23 132.38 213.7 132.01C213 131.39 212.65 130.56 212.65 129.52C212.65 128.22 213.19 126.95 214.27 125.7C215.35 124.45 216.72 123.27 218.37 122.18L220.47 120.62L221.18 118.55C220.7 119.03 220.17 119.47 219.58 119.9C219.02 120.24 218.43 120.4 217.81 120.4L216.8 120.23C216.41 120.15 216.04 119.79 215.71 119.18C215.43 118.53 215.29 117.93 215.29 117.37C215.29 116.53 215.42 115.75 215.68 115.03C215.94 114.31 216.36 113.34 216.94 112.1L218.98 107.74C219.4 106.84 220 106.4 220.79 106.4H222.35C222.77 106.4 223 106.54 223.02 106.82C223.02 107.05 222.92 107.34 222.73 107.7L221.21 110.68L219.58 113.88C219.08 114.89 218.79 115.65 218.74 116.15L218.91 116.65C218.97 116.76 219.19 116.82 219.58 116.82C219.92 116.82 220.23 116.67 220.53 116.38C220.82 116.09 221.14 115.63 221.48 115.01L222.87 112.36L224.8 108.49L225.66 106.9C226.02 106.28 226.54 105.97 227.21 105.97H228.76C229.1 105.97 229.28 106.15 229.31 106.52L229.23 107.07L229.06 107.49Z" fill="#1DA9E0"/>
<path d="M252.23 92.47L249.12 98.15L245.97 104.12L241.64 113.29L240.88 115.1C240.71 115.66 240.6 116.22 240.54 116.78V117.03L240.71 117.53C240.79 117.7 241.06 117.8 241.51 117.82L242.27 117.69C242.61 117.61 243.41 116.93 244.67 115.67C245.26 115.08 245.76 114.56 246.16 114.09C246.57 113.63 246.9 113.21 247.15 112.85V114.69C246.95 115.08 246.37 115.75 245.41 116.7C244.79 117.34 244.46 117.68 244.43 117.7C244.09 118.01 243.62 118.43 243.01 118.98C242.4 119.52 241.81 119.94 241.23 120.23C240.65 120.52 240.08 120.67 239.51 120.67L238.41 120.5C237.84 120.42 237.43 120.14 237.18 119.66L236.8 118.44V117.43C236.8 116.84 236.82 116.42 236.86 116.15C236.9 115.88 237.02 115.44 237.2 114.81C237.38 114.18 237.55 113.7 237.69 113.36C237.75 113.22 237.93 112.82 238.24 112.15L239.93 108.51L242.71 102.83C243.39 101.49 243.95 100.37 244.4 99.47C245.08 98.18 245.6 97.2 245.97 96.53L247.88 92.77C247.99 92.52 248.17 92.22 248.43 91.88C248.46 91.85 248.49 91.8 248.51 91.71L249.35 91.58H251.87C252.2 91.58 252.39 91.69 252.42 91.92L252.23 92.47Z" fill="#1DA9E0"/>
<path d="M253.37 99.83H253.79C254.43 99.83 254.84 100.04 255.01 100.46L255.22 101.51C255.22 102.13 255.04 102.74 254.67 103.36C254.44 103.89 254.14 104.31 253.76 104.62C253.38 104.93 252.97 105.08 252.52 105.08C251.85 105.08 251.41 104.94 251.22 104.66C251.02 104.38 250.9 104.01 250.84 103.56C250.84 103.14 250.93 102.68 251.11 102.18C251.29 101.69 251.62 101.2 252.1 100.72C252.53 100.24 252.95 99.95 253.37 99.83ZM253.47 107.01L250.22 113.58L249.38 115.47C249.21 115.89 249.13 116.33 249.13 116.77C249.13 116.97 249.21 117.21 249.38 117.51C249.55 117.8 249.76 117.95 250.01 117.95C250.07 117.95 250.23 117.92 250.51 117.87C251.1 117.7 251.97 117.04 253.12 115.89C254.27 114.74 255.07 113.83 255.52 113.16V114.92C255.41 115.11 255.21 115.38 254.93 115.71C254.65 116.04 254.28 116.45 253.83 116.92C253.01 117.81 252.26 118.51 251.58 119.01C251.01 119.57 250.45 119.99 249.88 120.27C249.31 120.55 248.71 120.69 248.06 120.69H247.34C247.11 120.69 246.85 120.56 246.56 120.29C246.26 120.02 246.03 119.75 245.86 119.47L245.61 118.54V117.53C245.61 117.03 245.62 116.65 245.65 116.39C245.68 116.14 245.78 115.74 245.94 115.21C246.02 114.93 246.16 114.54 246.36 114.03C246.55 113.53 246.74 113.09 246.9 112.73L249.56 107.1C249.64 106.9 249.74 106.72 249.85 106.55C249.88 106.49 249.92 106.42 249.98 106.34L250.77 106.17H253.11C253.44 106.17 253.63 106.28 253.65 106.51L253.47 107.01Z" fill="#1DA9E0"/>
<path d="M257.39 116.19L256.15 119.77C255.78 121.06 255.6 122.03 255.6 122.67C255.6 122.95 255.65 123.23 255.75 123.51C255.85 123.79 256.14 123.93 256.62 123.93C256.9 123.87 257.16 123.64 257.41 123.23C257.65 122.82 257.89 122.33 258.13 121.74C258.37 121.15 258.65 120.26 258.96 119.07C259.27 117.88 259.43 116.89 259.43 116.1C259.43 115.4 259.33 114.81 259.14 114.33L258.43 113.53C258.35 113.78 258.26 114.02 258.17 114.25C258.09 114.47 257.97 114.74 257.83 115.05L257.39 116.19ZM267.25 95.38C267.33 95.55 267.28 95.82 267.08 96.18L263.71 102.53L260.51 108.25L261.16 111.23C261.31 111.86 261.42 112.47 261.51 113.08C261.6 113.69 261.64 114.21 261.64 114.63L262.31 114.93H262.85C263.1 114.93 263.29 114.87 263.43 114.76C263.84 114.59 264.15 114.41 264.34 114.21L265.17 113.24V114.75C264.97 115.14 264.74 115.47 264.47 115.74C264.2 116.01 263.92 116.21 263.61 116.35L262.98 116.48C262.45 116.48 262 116.38 261.63 116.19C261.63 118.04 261.35 119.85 260.79 121.62C260.29 123.47 259.37 124.89 258.06 125.87C257.36 126.35 256.64 126.58 255.92 126.58L254.7 126.37C254.05 126.23 253.55 125.7 253.19 124.79C252.83 123.88 252.64 123 252.64 122.16C252.64 121.54 252.68 120.94 252.77 120.35C252.85 119.76 253.01 119.14 253.23 118.5C253.54 117.32 254.13 115.74 255 113.74L256.18 110.63L255.8 109.79L255.59 108.61C255.67 108.02 255.92 107.54 256.32 107.16C256.72 106.78 257.2 106.55 257.76 106.47L260.58 100.96C260.75 100.6 260.95 100.19 261.17 99.74C261.39 99.29 261.6 98.94 261.8 98.69L262.6 97.34L263.65 95.45C263.79 95.31 264.29 95.17 265.17 95.03L266.31 94.9C266.77 94.89 267.08 95.04 267.25 95.38Z" fill="#1DA9E0"/>
<path d="M268.21 111.94L268.09 112.53C268.09 112.9 268.23 113.12 268.51 113.21H269.1C269.32 113.21 269.62 113.09 269.98 112.85C270.34 112.61 270.69 112.2 271.01 111.6C271.33 111 271.56 110.31 271.7 109.53C271.7 109.03 271.62 108.7 271.45 108.55C271.28 108.4 271.04 108.32 270.73 108.32C270.56 108.32 270.32 108.41 270.02 108.57C269.71 108.74 269.35 109.23 268.93 110.05C268.73 110.47 268.59 110.81 268.49 111.05C268.39 111.31 268.3 111.6 268.21 111.94ZM267.42 115.31C267.19 115.62 267.06 116 267 116.47C267 116.97 267.25 117.43 267.74 117.86C268.23 118.29 268.87 118.5 269.65 118.5C270.72 118.5 271.84 118.02 273.02 117.05C274.2 116.08 275.42 114.8 276.68 113.2V114.95C274.97 116.95 273.57 118.4 272.47 119.32C271.38 120.23 270.13 120.69 268.73 120.69H267.47C266.97 120.63 266.37 120.4 265.68 119.97C264.99 119.55 264.49 118.93 264.19 118.11C263.83 117.3 263.64 116.45 263.64 115.58C263.64 114.85 263.67 114.33 263.72 114.02C263.78 113.71 263.9 113.3 264.1 112.8C264.43 111.79 264.93 110.72 265.57 109.59C266.21 108.47 266.93 107.58 267.71 106.93C268.49 106.28 269.33 105.96 270.23 105.96C270.65 105.96 270.96 105.96 271.15 106C271.35 106.03 271.7 106.13 272.22 106.32C272.74 106.5 273.22 106.88 273.67 107.44C274.12 108 274.34 108.68 274.34 109.47C274.34 109.98 274.21 110.64 273.94 111.46C273.67 112.28 273.19 113.09 272.49 113.91C271.84 114.73 271.28 115.23 270.81 115.43L269.8 115.77H269.09C268.37 115.78 267.81 115.62 267.42 115.31Z" fill="#1DA9E0"/>
<path d="M279.7 115.44L280.33 115.31C280.55 115.31 280.77 115.37 280.98 115.5C281.19 115.62 281.34 115.81 281.42 116.06C281.5 116.31 281.54 116.67 281.54 117.14C281.54 117.61 281.39 118.18 281.1 118.83C280.81 119.48 280.43 119.96 279.96 120.25C279.5 120.54 279.1 120.69 278.76 120.69C278.54 120.69 278.28 120.63 277.98 120.5C277.69 120.38 277.45 119.98 277.29 119.31C277.21 118.64 277.39 117.9 277.84 117.08C278.29 116.27 278.91 115.72 279.7 115.44Z" fill="#1DA9E0"/>
<path d="M288.53 115.44L289.16 115.31C289.38 115.31 289.6 115.37 289.81 115.5C290.02 115.62 290.17 115.81 290.25 116.06C290.33 116.31 290.37 116.67 290.37 117.14C290.37 117.61 290.22 118.18 289.93 118.83C289.64 119.48 289.26 119.96 288.79 120.25C288.33 120.54 287.93 120.69 287.59 120.69C287.37 120.69 287.11 120.63 286.81 120.5C286.52 120.38 286.28 119.98 286.12 119.31C286.04 118.64 286.22 117.9 286.67 117.08C287.13 116.27 287.74 115.72 288.53 115.44Z" fill="#1DA9E0"/>
<path d="M297.36 115.44L297.99 115.31C298.21 115.31 298.43 115.37 298.64 115.5C298.85 115.62 299 115.81 299.08 116.06C299.16 116.31 299.2 116.67 299.2 117.14C299.2 117.61 299.05 118.18 298.76 118.83C298.47 119.48 298.09 119.96 297.62 120.25C297.16 120.54 296.76 120.69 296.42 120.69C296.2 120.69 295.94 120.63 295.64 120.5C295.35 120.38 295.11 119.98 294.95 119.31C294.87 118.64 295.05 117.9 295.5 117.08C295.96 116.27 296.58 115.72 297.36 115.44Z" fill="#1DA9E0"/>
</g>
<defs>
<clipPath id="clip0_16210_1064">
<rect width="322.78" height="158.64" fill="white"/>
</clipPath>
</defs>
</svg>
